<svg width="15" height="13" viewBox="0 0 15 13" fill="none" xmlns="http://www.w3.org/2000/svg">
<rect y="1" width="1" height="1" fill="black"/>
<rect y="4" width="1" height="1" fill="black"/>
<rect y="6" width="1" height="1" fill="black"/>
<rect y="8" width="1" height="1" fill="black"/>
<rect x="1" y="10" width="1" height="1" fill="black"/>
<rect x="2" y="11" width="1" height="1" fill="black"/>
<rect y="11" width="1" height="1" fill="black"/>
<rect x="1" y="12" width="1" height="1" fill="black"/>
<rect x="5" y="12" width="1" height="1" fill="black"/>
<rect x="7" y="12" width="1" height="1" fill="black"/>
<rect x="9" y="12" width="1" height="1" fill="black"/>
<rect x="12" y="11" width="1" height="1" fill="black"/>
<rect x="13" y="12" width="1" height="1" fill="black"/>
<rect x="14" y="11" width="1" height="1" fill="black"/>
<rect x="13" y="10" width="1" height="1" fill="black"/>
<rect x="1" width="1" height="1" fill="black"/>
<rect x="2" y="1" width="1" height="1" fill="black"/>
<rect x="4" y="2" width="2" height="1" fill="black"/>
<rect x="9" y="2" width="2" height="1" fill="black"/>
<rect x="4" y="3" width="1" height="1" fill="black"/>
<rect x="6" y="3" width="1" height="1" fill="black"/>
<rect x="8" y="3" width="1" height="1" fill="black"/>
<rect x="10" y="3" width="1" height="1" fill="black"/>
<rect x="10" y="4" width="1" height="1" fill="black"/>
<rect x="7" y="4" width="1" height="1" fill="black"/>
<rect x="4" y="4" width="1" height="1" fill="black"/>
<rect x="3" y="5" width="1" height="1" fill="black"/>
<rect x="6" y="6" width="1" height="1" fill="black"/>
<rect x="9" y="6" width="1" height="1" fill="black"/>
<rect x="11" y="5" width="1" height="1" fill="black"/>
<rect x="2" y="6" width="2" height="1" fill="black"/>
<rect x="11" y="6" width="2" height="1" fill="black"/>
<rect x="3" y="7" width="1" height="1" fill="black"/>
<rect x="11" y="7" width="1" height="1" fill="black"/>
<rect x="2" y="8" width="2" height="1" fill="black"/>
<rect x="11" y="8" width="2" height="1" fill="black"/>
<rect x="4" y="9" width="1" height="1" fill="black"/>
<rect x="10" y="9" width="1" height="1" fill="black"/>
<rect x="5" y="10" width="5" height="1" fill="black"/>
<rect x="5" width="1" height="1" fill="black"/>
<rect x="7" width="1" height="1" fill="black"/>
<rect x="9" width="1" height="1" fill="black"/>
<rect x="13" width="1" height="1" fill="black"/>
<rect x="12" y="1" width="1" height="1" fill="black"/>
<rect x="13" y="2" width="1" height="1" fill="black"/>
<rect x="14" y="1" width="1" height="1" fill="black"/>
<rect x="14" y="4" width="1" height="1" fill="black"/>
<rect x="14" y="6" width="1" height="1" fill="black"/>
<rect x="14" y="8" width="1" height="1" fill="black"/>
<rect x="1" y="2" width="1" height="1" fill="black"/>
</svg>
