<svg width="16" height="16" viewBox="0 0 16 16" fill="none" xmlns="http://www.w3.org/2000/svg">
<path d="M5 4H4V5H5V4Z" fill="black"/>
<path d="M6 4H5V5H6V4Z" fill="black"/>
<path d="M11 4H10V5H11V4Z" fill="black"/>
<path d="M12 4H11V5H12V4Z" fill="black"/>
<path d="M5 5H4V6H5V5Z" fill="black"/>
<path d="M6 5H5V6H6V5Z" fill="white"/>
<path d="M7 5H6V6H7V5Z" fill="black"/>
<path d="M10 5H9V6H10V5Z" fill="black"/>
<path d="M11 5H10V6H11V5Z" fill="white"/>
<path d="M12 5H11V6H12V5Z" fill="black"/>
<path d="M5 6H4V7H5V6Z" fill="black"/>
<path d="M6 6H5V7H6V6Z" fill="white"/>
<path d="M7 6H6V7H7V6Z" fill="white"/>
<path d="M8 6H7V7H8V6Z" fill="black"/>
<path d="M9 6H8V7H9V6Z" fill="black"/>
<path d="M10 6H9V7H10V6Z" fill="white"/>
<path d="M11 6H10V7H11V6Z" fill="white"/>
<path d="M12 6H11V7H12V6Z" fill="black"/>
<path d="M4 7H3V8H4V7Z" fill="black"/>
<path d="M5 7H4V8H5V7Z" fill="white"/>
<path d="M6 7H5V8H6V7Z" fill="white"/>
<path d="M7 7H6V8H7V7Z" fill="white"/>
<path d="M8 7H7V8H8V7Z" fill="white"/>
<path d="M9 7H8V8H9V7Z" fill="white"/>
<path d="M10 7H9V8H10V7Z" fill="white"/>
<path d="M11 7H10V8H11V7Z" fill="white"/>
<path d="M12 7H11V8H12V7Z" fill="white"/>
<path d="M13 7H12V8H13V7Z" fill="black"/>
<path d="M2 8H1V9H2V8Z" fill="black"/>
<path d="M4 8H3V9H4V8Z" fill="black"/>
<path d="M5 8H4V9H5V8Z" fill="white"/>
<path d="M6 8H5V9H6V8Z" fill="white"/>
<path d="M7 8H6V9H7V8Z" fill="black"/>
<path d="M8 8H7V9H8V8Z" fill="white"/>
<path d="M9 8H8V9H9V8Z" fill="white"/>
<path d="M10 8H9V9H10V8Z" fill="black"/>
<path d="M11 8H10V9H11V8Z" fill="white"/>
<path d="M12 8H11V9H12V8Z" fill="white"/>
<path d="M13 8H12V9H13V8Z" fill="black"/>
<path d="M15 8H14V9H15V8Z" fill="black"/>
<path d="M3 9H2V10H3V9Z" fill="black"/>
<path d="M4 9H3V10H4V9Z" fill="black"/>
<path d="M5 9H4V10H5V9Z" fill="white"/>
<path d="M6 9H5V10H6V9Z" fill="white"/>
<path d="M7 9H6V10H7V9Z" fill="white"/>
<path d="M8 9H7V10H8V9Z" fill="white"/>
<path d="M9 9H8V10H9V9Z" fill="white"/>
<path d="M10 9H9V10H10V9Z" fill="white"/>
<path d="M11 9H10V10H11V9Z" fill="white"/>
<path d="M12 9H11V10H12V9Z" fill="white"/>
<path d="M13 9H12V10H13V9Z" fill="black"/>
<path d="M14 9H13V10H14V9Z" fill="black"/>
<path d="M2 10H1V11H2V10Z" fill="black"/>
<path d="M4 10H3V11H4V10Z" fill="black"/>
<path d="M5 10H4V11H5V10Z" fill="white"/>
<path d="M6 10H5V11H6V10Z" fill="white"/>
<path d="M7 10H6V11H7V10Z" fill="white"/>
<path d="M8 10H7V11H8V10Z" fill="white"/>
<path d="M9 10H8V11H9V10Z" fill="white"/>
<path d="M10 10H9V11H10V10Z" fill="white"/>
<path d="M11 10H10V11H11V10Z" fill="white"/>
<path d="M12 10H11V11H12V10Z" fill="white"/>
<path d="M13 10H12V11H13V10Z" fill="black"/>
<path d="M15 10H14V11H15V10Z" fill="black"/>
<path d="M5 11H4V12H5V11Z" fill="black"/>
<path d="M6 11H5V12H6V11Z" fill="white"/>
<path d="M7 11H6V12H7V11Z" fill="white"/>
<path d="M8 11H7V12H8V11Z" fill="white"/>
<path d="M9 11H8V12H9V11Z" fill="white"/>
<path d="M10 11H9V12H10V11Z" fill="white"/>
<path d="M11 11H10V12H11V11Z" fill="white"/>
<path d="M12 11H11V12H12V11Z" fill="black"/>
</svg>
