<svg width="16" height="16" viewBox="0 0 16 16" fill="none" xmlns="http://www.w3.org/2000/svg">
<path d="M4 2.5H3V3.5H4V2.5Z" fill="black"/>
<path d="M5 2.5H4V3.5H5V2.5Z" fill="black"/>
<path d="M12 2.5H11V3.5H12V2.5Z" fill="black"/>
<path d="M13 2.5H12V3.5H13V2.5Z" fill="black"/>
<path d="M4 3.5H3V4.5H4V3.5Z" fill="black"/>
<path d="M5 3.5H4V4.5H5V3.5Z" fill="white"/>
<path d="M6 3.5H5V4.5H6V3.5Z" fill="black"/>
<path d="M11 3.5H10V4.5H11V3.5Z" fill="black"/>
<path d="M12 3.5H11V4.5H12V3.5Z" fill="white"/>
<path d="M13 3.5H12V4.5H13V3.5Z" fill="black"/>
<path d="M4 4.5H3V5.5H4V4.5Z" fill="black"/>
<path d="M5 4.5H4V5.5H5V4.5Z" fill="white"/>
<path d="M6 4.5H5V5.5H6V4.5Z" fill="white"/>
<path d="M10 4.5H6V5.5H10V4.5Z" fill="black"/>
<path d="M11 4.5H10V5.5H11V4.5Z" fill="white"/>
<path d="M12 4.5H11V5.5H12V4.5Z" fill="white"/>
<path d="M13 4.5H12V5.5H13V4.5Z" fill="black"/>
<path d="M3 5.5H2V6.5H3V5.5Z" fill="black"/>
<path d="M4 5.5H3V6.5H4V5.5Z" fill="white"/>
<path d="M5 5.5H4V6.5H5V5.5Z" fill="white"/>
<path d="M6 5.5H5V6.5H6V5.5Z" fill="white"/>
<path d="M7 5.5H6V6.5H7V5.5Z" fill="white"/>
<path d="M10 5.5H9V6.5H10V5.5Z" fill="white"/>
<path d="M11 5.5H10V6.5H11V5.5Z" fill="white"/>
<path d="M12 5.5H11V6.5H12V5.5Z" fill="white"/>
<path d="M13 5.5H12V6.5H13V5.5Z" fill="white"/>
<path d="M14 5.5H13V6.5H14V5.5Z" fill="black"/>
<path d="M3 6.5H2V7.5H3V6.5Z" fill="black"/>
<path d="M4 6.5H3V7.5H4V6.5Z" fill="white"/>
<path d="M5 6.5H4V7.5H5V6.5Z" fill="white"/>
<path d="M6 6.5H5V7.5H6V6.5Z" fill="white"/>
<path d="M7 6.5H6V7.5H7V6.5Z" fill="white"/>
<path d="M10 6.5H9V7.5H10V6.5Z" fill="white"/>
<path d="M11 6.5H10V7.5H11V6.5Z" fill="white"/>
<path d="M12 6.5H11V7.5H12V6.5Z" fill="white"/>
<path d="M13 6.5H12V7.5H13V6.5Z" fill="white"/>
<path d="M14 6.5H13V7.5H14V6.5Z" fill="black"/>
<path d="M3 7.5H2V8.5H3V7.5Z" fill="black"/>
<path d="M4 7.5H3V8.5H4V7.5Z" fill="black"/>
<path d="M2 7.5H1V8.5H2V7.5Z" fill="black"/>
<path d="M1 7.5H0V8.5H1V7.5Z" fill="black"/>
<path d="M5 7.5H4V8.5H5V7.5Z" fill="white"/>
<path d="M6 7.5H5V8.5H6V7.5Z" fill="white"/>
<path d="M7 7.5H6V8.5H7V7.5Z" fill="black"/>
<path d="M10 7.5H9V8.5H10V7.5Z" fill="white"/>
<path d="M11 7.5H10V8.5H11V7.5Z" fill="black"/>
<path d="M12 7.5H11V8.5H12V7.5Z" fill="white"/>
<path d="M13 7.5H12V8.5H13V7.5Z" fill="white"/>
<path d="M14 7.5H13V8.5H14V7.5Z" fill="black"/>
<path d="M15 7.5H14V8.5H15V7.5Z" fill="black"/>
<path d="M16 7.5H15V8.5H16V7.5Z" fill="black"/>
<path d="M14 7.5H13V8.5H14V7.5Z" fill="black"/>
<path d="M3 10.5H2V11.5H3V10.5Z" fill="black"/>
<path d="M3 9.5H2V10.5H3V9.5Z" fill="black"/>
<path d="M3 8.5H2V9.5H3V8.5Z" fill="black"/>
<path d="M4 11.5H3V12.5H4V11.5Z" fill="black"/>
<path d="M12 12.5H4V13.5H12V12.5Z" fill="black"/>
<path d="M4 10.5H3V11.5H4V10.5Z" fill="white"/>
<path d="M4 9.5H3V10.5H4V9.5Z" fill="white"/>
<path d="M3 9.5H2V10.5H3V9.5Z" fill="black"/>
<path d="M4 9.5H3V10.5H4V9.5Z" fill="black"/>
<path d="M2 9.5H1V10.5H2V9.5Z" fill="black"/>
<path d="M1 9.5H0V10.5H1V9.5Z" fill="black"/>
<path d="M4 8.5H3V9.5H4V8.5Z" fill="white"/>
<path d="M5 10.5H4V11.5H5V10.5Z" fill="white"/>
<path d="M5 9.5H4V10.5H5V9.5Z" fill="white"/>
<path d="M5 8.5H4V9.5H5V8.5Z" fill="white"/>
<path d="M5 11.5H4V12.5H5V11.5Z" fill="white"/>
<path d="M6 10.5H5V11.5H6V10.5Z" fill="white"/>
<path d="M6 9.5H5V10.5H6V9.5Z" fill="white"/>
<path d="M6 8.5H5V9.5H6V8.5Z" fill="white"/>
<path d="M6 11.5H5V12.5H6V11.5Z" fill="white"/>
<path d="M7 10.5H6V11.5H7V10.5Z" fill="white"/>
<path d="M7 9.5H6V10.5H7V9.5Z" fill="white"/>
<path d="M7 8.5H6V9.5H7V8.5Z" fill="white"/>
<path d="M7 11.5H6V12.5H7V11.5Z" fill="white"/>
<path d="M10 10.5H9V11.5H10V10.5Z" fill="white"/>
<path d="M10 9.5H9V10.5H10V9.5Z" fill="white"/>
<path d="M10 8.5H9V9.5H10V8.5Z" fill="white"/>
<path d="M10 11.5H9V12.5H10V11.5Z" fill="white"/>
<path d="M8 5.5H7V12.5H8V5.5Z" fill="white"/>
<path d="M11 10.5H10V11.5H11V10.5Z" fill="white"/>
<path d="M11 9.5H10V10.5H11V9.5Z" fill="white"/>
<path d="M11 8.5H10V9.5H11V8.5Z" fill="white"/>
<path d="M11 11.5H10V12.5H11V11.5Z" fill="white"/>
<path d="M9 5.5H8V12.5H9V5.5Z" fill="white"/>
<path d="M12 10.5H11V11.5H12V10.5Z" fill="white"/>
<path d="M12 9.5H11V10.5H12V9.5Z" fill="white"/>
<path d="M12 8.5H11V9.5H12V8.5Z" fill="white"/>
<path d="M12 11.5H11V12.5H12V11.5Z" fill="white"/>
<path d="M13 10.5H12V11.5H13V10.5Z" fill="white"/>
<path d="M13 9.5H12V10.5H13V9.5Z" fill="white"/>
<path d="M15 9.5H14V10.5H15V9.5Z" fill="black"/>
<path d="M16 9.5H15V10.5H16V9.5Z" fill="black"/>
<path d="M14 9.5H13V10.5H14V9.5Z" fill="black"/>
<path d="M13 8.5H12V9.5H13V8.5Z" fill="white"/>
<path d="M14 10.5H13V11.5H14V10.5Z" fill="black"/>
<path d="M14 9.5H13V10.5H14V9.5Z" fill="black"/>
<path d="M14 8.5H13V9.5H14V8.5Z" fill="black"/>
<path d="M13 11.5H12V12.5H13V11.5Z" fill="black"/>
</svg>
