<svg width="16" height="16" viewBox="0 0 16 16" fill="none" xmlns="http://www.w3.org/2000/svg">
<rect x="3" y="3" width="4" height="1" fill="white"/>
<rect x="3" y="4" width="1" height="1" fill="white"/>
<rect x="3" y="6" width="1" height="1" fill="white"/>
<rect x="3" y="8" width="1" height="1" fill="white"/>
<rect x="3" y="9" width="5" height="1" fill="white"/>
<rect x="3" y="12" width="6" height="1" fill="white"/>
<rect x="3" y="10" width="1" height="1" fill="white"/>
<rect x="6" y="10" width="1" height="1" fill="white"/>
<rect x="3" y="11" width="5" height="1" fill="white"/>
<rect x="3" y="5" width="6" height="1" fill="white"/>
<rect x="3" y="7" width="6" height="1" fill="white"/>
<rect x="5" y="4" width="2" height="1" fill="white"/>
<rect x="5" y="6" width="1" height="1" fill="white"/>
<rect x="8" y="10" width="1" height="1" fill="white"/>
<rect x="7" y="8" width="2" height="1" fill="white"/>
<rect x="8" y="6" width="1" height="1" fill="white"/>
<rect x="2" y="2" width="6" height="1" fill="black"/>
<rect x="4" y="4" width="1" height="1" fill="black"/>
<rect x="4" y="6" width="1" height="1" fill="black"/>
<rect x="4" y="8" width="3" height="1" fill="black"/>
<rect x="4" y="10" width="2" height="1" fill="black"/>
<rect x="8" y="9" width="6" height="1" fill="black"/>
<rect x="8" y="11" width="6" height="1" fill="black"/>
<rect x="7" y="10" width="1" height="1" fill="black"/>
<rect x="9" y="10" width="5" height="1" fill="black"/>
<rect x="6" y="6" width="2" height="1" fill="black"/>
<rect x="2" y="13" width="8" height="1" fill="black"/>
<rect x="2" y="3" width="1" height="10" fill="black"/>
<rect x="9" y="12" width="1" height="1" fill="black"/>
<rect x="7" y="3" width="1" height="2" fill="black"/>
<rect x="8" y="3" width="1" height="2" fill="black"/>
<rect x="9" y="4" width="1" height="5" fill="black"/>
</svg>
