<svg width="24" height="12" viewBox="0 0 24 12" fill="none" xmlns="http://www.w3.org/2000/svg">
<rect y="10" width="3" height="1" fill="black"/>
<rect x="2" y="2" width="1" height="7" fill="black"/>
<rect x="3" y="1" width="6" height="1" fill="black"/>
<rect x="3" y="4" width="6" height="1" fill="black"/>
<rect x="9" y="1" width="1" height="8" fill="black"/>
<rect x="7" y="10" width="3" height="1" fill="black"/>
<rect x="8" y="11" width="2" height="1" fill="black"/>
<rect x="8" y="9" width="2" height="1" fill="black"/>
<rect x="1" y="9" width="2" height="1" fill="black"/>
<rect x="1" y="11" width="2" height="1" fill="black"/>
<rect x="14" y="9" width="3" height="1" fill="black"/>
<rect x="16" y="1" width="1" height="7" fill="black"/>
<rect x="17" width="6" height="1" fill="black"/>
<rect x="17" y="3" width="6" height="1" fill="black"/>
<rect x="23" width="1" height="8" fill="black"/>
<rect x="21" y="9" width="3" height="1" fill="black"/>
<rect x="22" y="10" width="2" height="1" fill="black"/>
<rect x="22" y="8" width="2" height="1" fill="black"/>
<rect x="15" y="8" width="2" height="1" fill="black"/>
<rect x="15" y="10" width="2" height="1" fill="black"/>
</svg>
