<svg width="16" height="16" viewBox="0 0 16 16" fill="none" xmlns="http://www.w3.org/2000/svg">
<g clip-path="url(#clip0_755_25297)">
<rect x="8" width="1" height="1" fill="black"/>
<rect x="9" y="1" width="1" height="1" fill="black"/>
<rect x="9" y="2" width="1" height="1" fill="black"/>
<rect x="10" y="3" width="1" height="1" fill="black"/>
<rect x="11" y="2" width="1" height="1" fill="black"/>
<rect x="12" y="1" width="1" height="1" fill="black"/>
<rect x="13" y="2" width="1" height="1" fill="black"/>
<rect x="14" y="3" width="1" height="1" fill="black"/>
<rect x="13" y="4" width="1" height="1" fill="black"/>
<rect x="12" y="5" width="1" height="1" fill="black"/>
<rect x="13" y="6" width="1" height="1" fill="black"/>
<rect x="14" y="6" width="1" height="1" fill="black"/>
<rect x="15" y="7" width="1" height="1" fill="black"/>
<rect x="8" y="16" width="1" height="1" transform="rotate(-180 8 16)" fill="black"/>
<rect x="7" y="15" width="1" height="1" transform="rotate(-180 7 15)" fill="black"/>
<rect x="7" y="14" width="1" height="1" transform="rotate(-180 7 14)" fill="black"/>
<rect x="6" y="13" width="1" height="1" transform="rotate(-180 6 13)" fill="black"/>
<rect x="5" y="14" width="1" height="1" transform="rotate(-180 5 14)" fill="black"/>
<rect x="4" y="15" width="1" height="1" transform="rotate(-180 4 15)" fill="black"/>
<rect x="3" y="14" width="1" height="1" transform="rotate(-180 3 14)" fill="black"/>
<rect x="2" y="13" width="1" height="1" transform="rotate(-180 2 13)" fill="black"/>
<rect x="3" y="12" width="1" height="1" transform="rotate(-180 3 12)" fill="black"/>
<rect x="4" y="11" width="1" height="1" transform="rotate(-180 4 11)" fill="black"/>
<rect x="3" y="10" width="1" height="1" transform="rotate(-180 3 10)" fill="black"/>
<rect x="2" y="10" width="1" height="1" transform="rotate(-180 2 10)" fill="black"/>
<rect x="1" y="9" width="1" height="1" transform="rotate(-180 1 9)" fill="black"/>
<rect x="16" y="8" width="1" height="1" transform="rotate(90 16 8)" fill="black"/>
<rect x="15" y="9" width="1" height="1" transform="rotate(90 15 9)" fill="black"/>
<rect x="14" y="9" width="1" height="1" transform="rotate(90 14 9)" fill="black"/>
<rect x="13" y="10" width="1" height="1" transform="rotate(90 13 10)" fill="black"/>
<rect x="14" y="11" width="1" height="1" transform="rotate(90 14 11)" fill="black"/>
<rect x="15" y="12" width="1" height="1" transform="rotate(90 15 12)" fill="black"/>
<rect x="14" y="13" width="1" height="1" transform="rotate(90 14 13)" fill="black"/>
<rect x="13" y="14" width="1" height="1" transform="rotate(90 13 14)" fill="black"/>
<rect x="12" y="13" width="1" height="1" transform="rotate(90 12 13)" fill="black"/>
<rect x="11" y="12" width="1" height="1" transform="rotate(90 11 12)" fill="black"/>
<rect x="10" y="13" width="1" height="1" transform="rotate(90 10 13)" fill="black"/>
<rect x="10" y="14" width="1" height="1" transform="rotate(90 10 14)" fill="black"/>
<rect x="9" y="15" width="1" height="1" transform="rotate(90 9 15)" fill="black"/>
<rect width="1" height="1" transform="matrix(-1 0 0 1 8 0)" fill="black"/>
<rect width="1" height="1" transform="matrix(-1 0 0 1 7 1)" fill="black"/>
<rect width="1" height="4" transform="matrix(-1 0 0 1 8 1)" fill="white"/>
<rect width="1" height="3" transform="matrix(-1 0 0 1 4 2)" fill="white"/>
<rect width="1" height="3" transform="matrix(-1 0 0 1 4 11)" fill="white"/>
<rect width="1" height="4" transform="matrix(-1 0 0 1 4 6)" fill="white"/>
<rect width="2" height="2" transform="matrix(-1 0 0 1 3 7)" fill="white"/>
<rect width="1" height="1" transform="matrix(-1 0 0 1 3 3)" fill="white"/>
<rect width="1" height="1" transform="matrix(-1 0 0 1 14 3)" fill="white"/>
<rect width="1" height="1" transform="matrix(-1 0 0 1 3 12)" fill="white"/>
<rect width="1" height="10" transform="matrix(-1 0 0 1 5 3)" fill="white"/>
<rect width="1" height="3" transform="matrix(-1 0 0 1 6 4)" fill="white"/>
<rect width="1" height="3" transform="matrix(-1 0 0 1 7 3)" fill="white"/>
<rect width="1" height="3" transform="matrix(-1 0 0 1 7 10)" fill="white"/>
<rect width="1" height="3" transform="matrix(-1 0 0 1 6 9)" fill="white"/>
<rect width="1" height="4" transform="matrix(-1 0 0 1 8 11)" fill="white"/>
<rect width="1" height="1" transform="matrix(-1 0 0 1 7 2)" fill="black"/>
<rect width="2" height="1" transform="matrix(-1 0 0 1 9 5)" fill="black"/>
<rect width="1" height="1" transform="matrix(-1 0 0 1 7 6)" fill="black"/>
<rect width="1" height="1" transform="matrix(-1 0 0 1 7 9)" fill="black"/>
<rect width="1" height="1" transform="matrix(-1 0 0 1 10 6)" fill="black"/>
<rect width="1" height="1" transform="matrix(-1 0 0 1 10 9)" fill="black"/>
<rect width="1" height="2" transform="matrix(-1 0 0 1 11 7)" fill="black"/>
<rect width="1" height="2" transform="matrix(-1 0 0 1 6 7)" fill="black"/>
<rect width="2" height="1" transform="matrix(-1 0 0 1 9 10)" fill="black"/>
<rect width="1" height="1" transform="matrix(-1 0 0 1 6 3)" fill="black"/>
<rect width="1" height="1" transform="matrix(-1 0 0 1 5 2)" fill="black"/>
<rect width="1" height="1" transform="matrix(-1 0 0 1 4 1)" fill="black"/>
<rect width="1" height="1" transform="matrix(-1 0 0 1 3 2)" fill="black"/>
<rect width="1" height="1" transform="matrix(-1 0 0 1 2 3)" fill="black"/>
<rect width="1" height="1" transform="matrix(-1 0 0 1 3 4)" fill="black"/>
<rect width="1" height="1" transform="matrix(-1 0 0 1 4 5)" fill="black"/>
<rect width="1" height="1" transform="matrix(-1 0 0 1 3 6)" fill="black"/>
<rect width="1" height="1" transform="matrix(-1 0 0 1 2 6)" fill="black"/>
<rect width="1" height="1" transform="matrix(-1 0 0 1 1 7)" fill="black"/>
<rect x="8" y="1" width="1" height="4" fill="white"/>
<rect x="8" y="6" width="1" height="4" fill="white"/>
<rect x="7" y="6" width="1" height="4" fill="white"/>
<rect x="6" y="7" width="1" height="2" fill="white"/>
<rect x="9" y="7" width="1" height="2" fill="white"/>
<rect x="12" y="2" width="1" height="3" fill="white"/>
<rect x="12" y="11" width="1" height="3" fill="white"/>
<rect x="12" y="6" width="1" height="4" fill="white"/>
<rect x="13" y="7" width="2" height="2" fill="white"/>
<rect x="13" y="12" width="1" height="1" fill="white"/>
<rect x="11" y="3" width="1" height="10" fill="white"/>
<rect x="10" y="4" width="1" height="3" fill="white"/>
<rect x="9" y="3" width="1" height="3" fill="white"/>
<rect x="9" y="10" width="1" height="3" fill="white"/>
<rect x="10" y="9" width="1" height="3" fill="white"/>
<rect x="8" y="11" width="1" height="4" fill="white"/>
</g>
<defs>
<clipPath id="clip0_755_25297">
<rect width="16" height="16" fill="white"/>
</clipPath>
</defs>
</svg>
