<svg width="8" height="8" viewBox="0 0 8 8" fill="none" xmlns="http://www.w3.org/2000/svg" shape-rendering="crispEdges">
<rect x="2" width="1" height="1" fill="black"/>
<rect x="1" y="1" width="1" height="1" fill="black"/>
<rect x="2" y="1" width="4" height="1" fill="white"/>
<rect x="2" y="6" width="4" height="1" fill="white"/>
<rect x="1" y="2" width="6" height="1" fill="white"/>
<rect x="1" y="3" width="6" height="1" fill="white"/>
<rect x="1" y="4" width="6" height="1" fill="white"/>
<rect x="1" y="5" width="6" height="1" fill="white"/>
<rect y="2" width="1" height="1" fill="black"/>
<rect y="3" width="1" height="1" fill="black"/>
<rect x="3" width="1" height="1" fill="black"/>
<rect x="8" y="2" width="1" height="1" transform="rotate(90 8 2)" fill="black"/>
<rect x="7" y="1" width="1" height="1" transform="rotate(90 7 1)" fill="black"/>
<rect x="6" width="1" height="1" transform="rotate(90 6 0)" fill="black"/>
<rect x="5" width="1" height="1" transform="rotate(90 5 0)" fill="black"/>
<rect x="8" y="3" width="1" height="1" transform="rotate(90 8 3)" fill="black"/>
<rect x="6" y="8" width="1" height="1" transform="rotate(-180 6 8)" fill="black"/>
<rect x="7" y="7" width="1" height="1" transform="rotate(-180 7 7)" fill="black"/>
<rect x="8" y="6" width="1" height="1" transform="rotate(-180 8 6)" fill="black"/>
<rect x="8" y="5" width="1" height="1" transform="rotate(-180 8 5)" fill="black"/>
<rect x="5" y="8" width="1" height="1" transform="rotate(-180 5 8)" fill="black"/>
<rect width="1" height="1" transform="matrix(1 0 0 -1 2 8)" fill="black"/>
<rect width="1" height="1" transform="matrix(1 0 0 -1 1 7)" fill="black"/>
<rect width="1" height="1" transform="matrix(1 0 0 -1 0 6)" fill="black"/>
<rect width="1" height="1" transform="matrix(1 0 0 -1 0 5)" fill="black"/>
<rect width="1" height="1" transform="matrix(1 0 0 -1 3 8)" fill="black"/>
</svg>
