<svg width="160" height="32" viewBox="0 0 160 32" fill="none" xmlns="http://www.w3.org/2000/svg">
<path d="M11 17H9V18H11V17Z" fill="black"/>
<path d="M17 17H15V18H17V17Z" fill="black"/>
<path d="M43 17H41V18H43V17Z" fill="black"/>
<path d="M49 17H47V18H49V17Z" fill="black"/>
<path d="M10 18H9V20H10V18Z" fill="black"/>
<path d="M11 18H10V31H11V18Z" fill="white"/>
<path d="M12 18H11V19H12V18Z" fill="black"/>
<path d="M15 18H14V19H15V18Z" fill="black"/>
<path d="M16 18H15V27H16V18Z" fill="white"/>
<path d="M17 18H16V20H17V18Z" fill="black"/>
<path d="M24 18H23V19H24V18Z" fill="black"/>
<path d="M42 18H41V20H42V18Z" fill="black"/>
<path d="M43 18H42V21H43V18Z" fill="white"/>
<path d="M44 18H43V19H44V18Z" fill="black"/>
<path d="M47 18H46V19H47V18Z" fill="black"/>
<path d="M48 18H47V30H48V18Z" fill="white"/>
<path d="M49 18H48V20H49V18Z" fill="black"/>
<path d="M75 18H73V19H75V18Z" fill="black"/>
<path d="M81 18H79V19H81V18Z" fill="black"/>
<path d="M85 18H84V19H85V18Z" fill="black"/>
<path d="M107 18H105V19H107V18Z" fill="black"/>
<path d="M113 18H111V19H113V18Z" fill="black"/>
<path d="M120 18H119V19H120V18Z" fill="black"/>
<path d="M139 18H137V19H139V18Z" fill="black"/>
<path d="M145 18H143V19H145V18Z" fill="black"/>
<path d="M149 18H148V19H149V18Z" fill="black"/>
<path d="M12 19H11V21H12V19Z" fill="white"/>
<path d="M14 19H12V20H14V19Z" fill="black"/>
<path d="M15 19H14V21H15V19Z" fill="white"/>
<path d="M23 19H22V26H23V19Z" fill="black"/>
<path d="M24 19H23V30H24V19Z" fill="white"/>
<path d="M25 19H24V30H25V19Z" fill="black"/>
<path d="M44 19H43V30H44V19Z" fill="white"/>
<path d="M46 19H44V20H46V19Z" fill="black"/>
<path d="M47 19H46V30H47V19Z" fill="white"/>
<path d="M55 19H53V20H55V19Z" fill="black"/>
<path d="M74 19H73V21H74V19Z" fill="black"/>
<path d="M75 19H74V22H75V19Z" fill="white"/>
<path d="M76 19H75V20H76V19Z" fill="black"/>
<path d="M79 19H78V20H79V19Z" fill="black"/>
<path d="M80 19H79V31H80V19Z" fill="white"/>
<path d="M81 19H80V21H81V19Z" fill="black"/>
<path d="M84 19H83V21H84V19Z" fill="black"/>
<path d="M85 19H84V21H85V19Z" fill="white"/>
<path d="M86 19H85V20H86V19Z" fill="black"/>
<path d="M106 19H105V21H106V19Z" fill="black"/>
<path d="M107 19H106V22H107V19Z" fill="white"/>
<path d="M108 19H107V20H108V19Z" fill="black"/>
<path d="M111 19H110V20H111V19Z" fill="black"/>
<path d="M112 19H111V30H112V19Z" fill="white"/>
<path d="M113 19H112V21H113V19Z" fill="black"/>
<path d="M119 19H118V26H119V19Z" fill="black"/>
<path d="M120 19H119V31H120V19Z" fill="white"/>
<path d="M121 19H120V32H121V19Z" fill="black"/>
<path d="M138 19H137V21H138V19Z" fill="black"/>
<path d="M139 19H138V22H139V19Z" fill="white"/>
<path d="M140 19H139V20H140V19Z" fill="black"/>
<path d="M143 19H142V20H143V19Z" fill="black"/>
<path d="M144 19H143V31H144V19Z" fill="white"/>
<path d="M145 19H144V21H145V19Z" fill="black"/>
<path d="M148 19H147V21H148V19Z" fill="black"/>
<path d="M149 19H148V21H149V19Z" fill="white"/>
<path d="M150 19H149V20H150V19Z" fill="black"/>
<path d="M9 20H8V24H9V20Z" fill="black"/>
<path d="M10 20H9V24H10V20Z" fill="white"/>
<path d="M14 20H12V28H14V20Z" fill="white"/>
<path d="M17 20H16V24H17V20Z" fill="white"/>
<path d="M18 20H17V24H18V20Z" fill="black"/>
<path d="M41 20H40V24H41V20Z" fill="black"/>
<path d="M42 20H41V24H42V20Z" fill="white"/>
<path d="M46 20H44V21H46V20Z" fill="white"/>
<path d="M49 20H48V24H49V20Z" fill="white"/>
<path d="M50 20H49V24H50V20Z" fill="black"/>
<path d="M53 20H52V22H53V20Z" fill="black"/>
<path d="M54 20H53V22H54V20Z" fill="white"/>
<path d="M55 20H54V21H55V20Z" fill="black"/>
<path d="M76 20H75V31H76V20Z" fill="white"/>
<path d="M78 20H76V21H78V20Z" fill="black"/>
<path d="M79 20H78V31H79V20Z" fill="white"/>
<path d="M86 20H85V23H86V20Z" fill="white"/>
<path d="M87 20H86V22H87V20Z" fill="black"/>
<path d="M108 20H107V28H108V20Z" fill="white"/>
<path d="M110 20H108V21H110V20Z" fill="black"/>
<path d="M111 20H110V30H111V20Z" fill="white"/>
<path d="M140 20H139V31H140V20Z" fill="white"/>
<path d="M142 20H140V21H142V20Z" fill="black"/>
<path d="M143 20H142V31H143V20Z" fill="white"/>
<path d="M150 20H149V23H150V20Z" fill="white"/>
<path d="M151 20H150V22H151V20Z" fill="black"/>
<path d="M7 21H6V22H7V21Z" fill="black"/>
<path d="M12 21H11V22H12V21Z" fill="black"/>
<path d="M15 21H14V22H15V21Z" fill="black"/>
<path d="M20 21H19V22H20V21Z" fill="black"/>
<path d="M40 21H39V22H40V21Z" fill="black"/>
<path d="M43 21H42V22H43V21Z" fill="black"/>
<path d="M45 21H44V28H45V21Z" fill="white"/>
<path d="M46 21H45V22H46V21Z" fill="black"/>
<path d="M51 21H50V22H51V21Z" fill="black"/>
<path d="M55 21H54V24H55V21Z" fill="white"/>
<path d="M56 21H55V24H56V21Z" fill="black"/>
<path d="M73 21H72V25H73V21Z" fill="black"/>
<path d="M74 21H73V25H74V21Z" fill="white"/>
<path d="M78 21H76V22H78V21Z" fill="white"/>
<path d="M81 21H80V30H81V21Z" fill="white"/>
<path d="M82 21H81V26H82V21Z" fill="black"/>
<path d="M85 21H84V23H85V21Z" fill="black"/>
<path d="M105 21H104V25H105V21Z" fill="black"/>
<path d="M106 21H105V25H106V21Z" fill="white"/>
<path d="M110 21H108V22H110V21Z" fill="white"/>
<path d="M113 21H112V30H113V21Z" fill="white"/>
<path d="M114 21H113V26H114V21Z" fill="black"/>
<path d="M137 21H136V25H137V21Z" fill="black"/>
<path d="M138 21H137V25H138V21Z" fill="white"/>
<path d="M142 21H140V22H142V21Z" fill="white"/>
<path d="M145 21H144V30H145V21Z" fill="white"/>
<path d="M146 21H145V26H146V21Z" fill="black"/>
<path d="M149 21H148V23H149V21Z" fill="black"/>
<path d="M8 22H7V23H8V22Z" fill="black"/>
<path d="M12 22H11V31H12V22Z" fill="white"/>
<path d="M15 22H14V31H15V22Z" fill="white"/>
<path d="M19 22H18V23H19V22Z" fill="black"/>
<path d="M43 22H42V28H43V22Z" fill="white"/>
<path d="M46 22H45V31H46V22Z" fill="white"/>
<path d="M54 22H53V24H54V22Z" fill="black"/>
<path d="M72 22H71V23H72V22Z" fill="black"/>
<path d="M75 22H74V23H75V22Z" fill="black"/>
<path d="M77 22H76V28H77V22Z" fill="white"/>
<path d="M78 22H77V23H78V22Z" fill="black"/>
<path d="M83 22H82V23H83V22Z" fill="black"/>
<path d="M87 22H86V24H87V22Z" fill="white"/>
<path d="M88 22H87V23H88V22Z" fill="black"/>
<path d="M104 22H103V23H104V22Z" fill="black"/>
<path d="M107 22H106V23H107V22Z" fill="black"/>
<path d="M109 22H108V30H109V22Z" fill="white"/>
<path d="M110 22H109V23H110V22Z" fill="black"/>
<path d="M115 22H114V23H115V22Z" fill="black"/>
<path d="M136 22H135V23H136V22Z" fill="black"/>
<path d="M139 22H138V23H139V22Z" fill="black"/>
<path d="M141 22H140V28H141V22Z" fill="white"/>
<path d="M142 22H141V23H142V22Z" fill="black"/>
<path d="M147 22H146V23H147V22Z" fill="black"/>
<path d="M151 22H150V24H151V22Z" fill="white"/>
<path d="M152 22H151V23H152V22Z" fill="black"/>
<path d="M7 23H6V24H7V23Z" fill="black"/>
<path d="M20 23H19V24H20V23Z" fill="black"/>
<path d="M40 23H39V24H40V23Z" fill="black"/>
<path d="M51 23H50V24H51V23Z" fill="black"/>
<path d="M57 23H56V31H57V23Z" fill="black"/>
<path d="M75 23H74V31H75V23Z" fill="white"/>
<path d="M78 23H77V31H78V23Z" fill="white"/>
<path d="M86 23H85V24H86V23Z" fill="black"/>
<path d="M88 23H87V31H88V23Z" fill="white"/>
<path d="M89 23H88V32H89V23Z" fill="black"/>
<path d="M107 23H106V31H107V23Z" fill="white"/>
<path d="M110 23H109V31H110V23Z" fill="white"/>
<path d="M139 23H138V31H139V23Z" fill="white"/>
<path d="M142 23H141V31H142V23Z" fill="white"/>
<path d="M150 23H149V24H150V23Z" fill="black"/>
<path d="M152 23H151V31H152V23Z" fill="white"/>
<path d="M153 23H152V32H153V23Z" fill="black"/>
<path d="M10 24H9V31H10V24Z" fill="black"/>
<path d="M17 24H16V25H17V24Z" fill="black"/>
<path d="M42 24H41V28H42V24Z" fill="black"/>
<path d="M49 24H48V25H49V24Z" fill="black"/>
<path d="M55 24H54V26H55V24Z" fill="black"/>
<path d="M56 24H55V31H56V24Z" fill="white"/>
<path d="M72 24H71V25H72V24Z" fill="black"/>
<path d="M83 24H82V26H83V24Z" fill="black"/>
<path d="M87 24H86V26H87V24Z" fill="black"/>
<path d="M104 24H103V25H104V24Z" fill="black"/>
<path d="M115 24H114V26H115V24Z" fill="black"/>
<path d="M136 24H135V25H136V24Z" fill="black"/>
<path d="M147 24H146V26H147V24Z" fill="black"/>
<path d="M151 24H150V26H151V24Z" fill="black"/>
<path d="M17 25H16V31H17V25Z" fill="white"/>
<path d="M22 25H17V26H22V25Z" fill="black"/>
<path d="M49 25H48V30H49V25Z" fill="white"/>
<path d="M54 25H49V26H54V25Z" fill="black"/>
<path d="M74 25H73V31H74V25Z" fill="black"/>
<path d="M86 25H83V26H86V25Z" fill="black"/>
<path d="M106 25H105V30H106V25Z" fill="black"/>
<path d="M118 25H115V26H118V25Z" fill="black"/>
<path d="M138 25H137V31H138V25Z" fill="black"/>
<path d="M150 25H147V26H150V25Z" fill="black"/>
<path d="M23 26H17V29H23V26Z" fill="white"/>
<path d="M55 26H49V30H55V26Z" fill="white"/>
<path d="M87 26H81V30H87V26Z" fill="white"/>
<path d="M119 26H113V30H119V26Z" fill="white"/>
<path d="M151 26H145V30H151V26Z" fill="white"/>
<path d="M16 27H15V32H16V27Z" fill="black"/>
<path d="M13 28H12V32H13V28Z" fill="black"/>
<path d="M14 28H13V31H14V28Z" fill="white"/>
<path d="M43 28H42V31H43V28Z" fill="black"/>
<path d="M45 28H44V30H45V28Z" fill="black"/>
<path d="M77 28H76V32H77V28Z" fill="black"/>
<path d="M108 28H107V31H108V28Z" fill="black"/>
<path d="M141 28H140V32H141V28Z" fill="black"/>
<path d="M19 29H17V30H19V29Z" fill="white"/>
<path d="M22 29H19V30H22V29Z" fill="black"/>
<path d="M23 29H22V31H23V29Z" fill="white"/>
<path d="M18 30H17V31H18V30Z" fill="white"/>
<path d="M19 30H18V32H19V30Z" fill="black"/>
<path d="M22 30H19V31H22V30Z" fill="white"/>
<path d="M24 30H23V31H24V30Z" fill="black"/>
<path d="M44 30H43V32H44V30Z" fill="black"/>
<path d="M45 30H44V31H45V30Z" fill="white"/>
<path d="M50 30H46V31H50V30Z" fill="black"/>
<path d="M52 30H50V31H52V30Z" fill="white"/>
<path d="M54 30H52V31H54V30Z" fill="black"/>
<path d="M55 30H54V31H55V30Z" fill="white"/>
<path d="M82 30H80V31H82V30Z" fill="black"/>
<path d="M85 30H82V31H85V30Z" fill="white"/>
<path d="M86 30H85V32H86V30Z" fill="black"/>
<path d="M87 30H86V31H87V30Z" fill="white"/>
<path d="M105 30H104V32H105V30Z" fill="black"/>
<path d="M106 30H105V31H106V30Z" fill="white"/>
<path d="M109 30H108V32H109V30Z" fill="black"/>
<path d="M114 30H110V31H114V30Z" fill="black"/>
<path d="M118 30H114V31H118V30Z" fill="white"/>
<path d="M119 30H118V32H119V30Z" fill="black"/>
<path d="M146 30H144V31H146V30Z" fill="black"/>
<path d="M149 30H146V31H149V30Z" fill="white"/>
<path d="M150 30H149V32H150V30Z" fill="black"/>
<path d="M151 30H150V31H151V30Z" fill="white"/>
<path d="M12 31H10V32H12V31Z" fill="black"/>
<path d="M15 31H13V32H15V31Z" fill="black"/>
<path d="M18 31H16V32H18V31Z" fill="black"/>
<path d="M23 31H19V32H23V31Z" fill="black"/>
<path d="M46 31H44V32H46V31Z" fill="black"/>
<path d="M52 31H49V32H52V31Z" fill="black"/>
<path d="M56 31H53V32H56V31Z" fill="black"/>
<path d="M76 31H74V32H76V31Z" fill="black"/>
<path d="M80 31H77V32H80V31Z" fill="black"/>
<path d="M85 31H82V32H85V31Z" fill="black"/>
<path d="M88 31H86V32H88V31Z" fill="black"/>
<path d="M107 31H105V32H107V31Z" fill="black"/>
<path d="M111 31H109V32H111V31Z" fill="black"/>
<path d="M118 31H114V32H118V31Z" fill="black"/>
<path d="M120 31H119V32H120V31Z" fill="black"/>
<path d="M140 31H138V32H140V31Z" fill="black"/>
<path d="M144 31H141V32H144V31Z" fill="black"/>
<path d="M149 31H146V32H149V31Z" fill="black"/>
<path d="M152 31H150V32H152V31Z" fill="black"/>
</svg>
