<svg width="96" height="32" viewBox="0 0 96 32" fill="none" xmlns="http://www.w3.org/2000/svg">
<path d="M15 25H12V26H15V25Z" fill="black"/>
<path d="M47 25H44V26H47V25Z" fill="black"/>
<path d="M12 26H11V27H12V26Z" fill="black"/>
<path d="M15 26H12V27H15V26Z" fill="white"/>
<path d="M16 26H15V27H16V26Z" fill="black"/>
<path d="M44 26H43V27H44V26Z" fill="black"/>
<path d="M47 26H44V27H47V26Z" fill="white"/>
<path d="M48 26H47V27H48V26Z" fill="black"/>
<path d="M79 26H76V27H79V26Z" fill="black"/>
<path d="M11 27H10V28H11V27Z" fill="black"/>
<path d="M12 27H11V28H12V27Z" fill="white"/>
<path d="M13 27H12V28H13V27Z" fill="black"/>
<path d="M14 27H13V29H14V27Z" fill="white"/>
<path d="M15 27H14V28H15V27Z" fill="black"/>
<path d="M16 27H15V28H16V27Z" fill="white"/>
<path d="M17 27H16V29H17V27Z" fill="black"/>
<path d="M43 27H42V28H43V27Z" fill="black"/>
<path d="M44 27H43V28H44V27Z" fill="white"/>
<path d="M45 27H44V28H45V27Z" fill="black"/>
<path d="M46 27H45V29H46V27Z" fill="white"/>
<path d="M47 27H46V28H47V27Z" fill="black"/>
<path d="M48 27H47V28H48V27Z" fill="white"/>
<path d="M49 27H48V29H49V27Z" fill="black"/>
<path d="M76 27H75V28H76V27Z" fill="black"/>
<path d="M79 27H76V28H79V27Z" fill="white"/>
<path d="M80 27H79V28H80V27Z" fill="black"/>
<path d="M86 27H85V28H86V27Z" fill="black"/>
<path d="M12 28H11V29H12V28Z" fill="black"/>
<path d="M13 28H12V29H13V28Z" fill="white"/>
<path d="M15 28H14V29H15V28Z" fill="white"/>
<path d="M16 28H15V29H16V28Z" fill="black"/>
<path d="M19 28H17V29H19V28Z" fill="black"/>
<path d="M44 28H43V29H44V28Z" fill="black"/>
<path d="M45 28H44V29H45V28Z" fill="white"/>
<path d="M47 28H46V29H47V28Z" fill="white"/>
<path d="M48 28H47V29H48V28Z" fill="black"/>
<path d="M51 28H49V29H51V28Z" fill="black"/>
<path d="M54 28H52V29H54V28Z" fill="black"/>
<path d="M75 28H74V29H75V28Z" fill="black"/>
<path d="M76 28H75V29H76V28Z" fill="white"/>
<path d="M77 28H76V29H77V28Z" fill="black"/>
<path d="M78 28H77V30H78V28Z" fill="white"/>
<path d="M79 28H78V29H79V28Z" fill="black"/>
<path d="M80 28H79V29H80V28Z" fill="white"/>
<path d="M83 28H80V29H83V28Z" fill="black"/>
<path d="M85 28H84V29H85V28Z" fill="black"/>
<path d="M15 29H12V30H15V29Z" fill="black"/>
<path d="M19 29H15V31H19V29Z" fill="white"/>
<path d="M22 29H19V30H22V29Z" fill="black"/>
<path d="M47 29H44V30H47V29Z" fill="black"/>
<path d="M51 29H47V31H51V29Z" fill="white"/>
<path d="M52 29H51V31H52V29Z" fill="black"/>
<path d="M76 29H75V30H76V29Z" fill="black"/>
<path d="M77 29H76V30H77V29Z" fill="white"/>
<path d="M79 29H78V30H79V29Z" fill="white"/>
<path d="M80 29H79V30H80V29Z" fill="black"/>
<path d="M83 29H80V31H83V29Z" fill="white"/>
<path d="M84 29H83V31H84V29Z" fill="black"/>
<path d="M14 30H13V32H14V30Z" fill="black"/>
<path d="M15 30H14V31H15V30Z" fill="white"/>
<path d="M20 30H19V31H20V30Z" fill="black"/>
<path d="M46 30H45V32H46V30Z" fill="black"/>
<path d="M47 30H46V31H47V30Z" fill="white"/>
<path d="M79 30H76V31H79V30Z" fill="black"/>
<path d="M80 30H79V31H80V30Z" fill="white"/>
<path d="M19 31H14V32H19V31Z" fill="black"/>
<path d="M51 31H46V32H51V31Z" fill="black"/>
<path d="M83 31H77V32H83V31Z" fill="black"/>
</svg>
