<svg width="384" height="160" viewBox="0 0 384 160" fill="none" xmlns="http://www.w3.org/2000/svg">
<rect x="136" y="132" width="16" height="4" fill="black"/>
<rect x="120" y="144" width="144" height="4" fill="black"/>
<rect x="120" y="148" width="144" height="4" fill="black"/>
<rect x="120" y="152" width="144" height="4" fill="black"/>
<rect x="120" y="156" width="144" height="4" fill="black"/>
<rect x="168" y="132" width="16" height="4" fill="black"/>
<rect x="200" y="132" width="16" height="4" fill="black"/>
<rect x="232" y="132" width="16" height="4" fill="black"/>
<rect x="136" y="128" width="16" height="4" fill="black"/>
<rect x="168" y="128" width="16" height="4" fill="black"/>
<rect x="200" y="128" width="16" height="4" fill="black"/>
<rect x="232" y="128" width="16" height="4" fill="black"/>
<rect x="136" y="124" width="16" height="4" fill="black"/>
<rect x="168" y="124" width="16" height="4" fill="black"/>
<rect x="200" y="124" width="16" height="4" fill="black"/>
<rect x="232" y="124" width="16" height="4" fill="black"/>
<rect x="136" y="120" width="16" height="4" fill="black"/>
<rect x="168" y="120" width="16" height="4" fill="black"/>
<rect x="200" y="120" width="16" height="4" fill="black"/>
<rect x="232" y="120" width="16" height="4" fill="black"/>
<rect x="136" y="116" width="16" height="4" fill="black"/>
<rect x="168" y="116" width="16" height="4" fill="black"/>
<rect x="200" y="116" width="16" height="4" fill="black"/>
<rect x="232" y="116" width="16" height="4" fill="black"/>
<rect x="136" y="112" width="16" height="4" fill="black"/>
<rect x="168" y="112" width="16" height="4" fill="black"/>
<rect x="200" y="112" width="16" height="4" fill="black"/>
<rect x="232" y="112" width="16" height="4" fill="black"/>
<rect x="136" y="108" width="16" height="4" fill="black"/>
<rect x="168" y="108" width="16" height="4" fill="black"/>
<rect x="200" y="108" width="16" height="4" fill="black"/>
<rect x="232" y="108" width="16" height="4" fill="black"/>
<rect x="136" y="104" width="16" height="4" fill="black"/>
<rect x="168" y="104" width="16" height="4" fill="black"/>
<rect x="200" y="104" width="16" height="4" fill="black"/>
<rect x="232" y="104" width="16" height="4" fill="black"/>
<rect x="184" width="16" height="4" fill="black"/>
<rect x="184" y="4" width="16" height="4" fill="black"/>
<rect x="176" y="8" width="32" height="4" fill="black"/>
<rect x="176" y="12" width="32" height="4" fill="black"/>
<rect x="160" y="16" width="24" height="4" fill="black"/>
<rect x="160" y="20" width="24" height="4" fill="black"/>
<rect x="152" y="24" width="16" height="4" fill="black"/>
<rect x="152" y="28" width="16" height="4" fill="black"/>
<rect x="200" y="16" width="24" height="4" fill="black"/>
<rect x="200" y="20" width="24" height="4" fill="black"/>
<rect x="216" y="24" width="16" height="4" fill="black"/>
<rect x="216" y="28" width="16" height="4" fill="black"/>
<rect x="224" y="32" width="16" height="4" fill="black"/>
<rect x="224" y="36" width="16" height="4" fill="black"/>
<rect x="144" y="32" width="16" height="4" fill="black"/>
<rect x="144" y="36" width="16" height="4" fill="black"/>
<rect x="24" y="16" width="128" height="4" fill="#808080"/>
<rect x="24" y="20" width="128" height="4" fill="#808080"/>
<rect x="16" y="24" width="128" height="4" fill="#808080"/>
<rect x="16" y="28" width="128" height="4" fill="#808080"/>
<rect x="8" y="32" width="120" height="4" fill="#808080"/>
<rect x="8" y="36" width="120" height="4" fill="#808080"/>
<rect y="40" width="120" height="4" fill="#808080"/>
<rect x="264" y="40" width="120" height="4" fill="#808080"/>
<rect x="128" y="40" width="128" height="4" fill="black"/>
<rect x="128" y="44" width="128" height="4" fill="black"/>
<rect x="128" y="48" width="128" height="4" fill="black"/>
<rect x="128" y="52" width="128" height="4" fill="black"/>
<rect x="8" y="56" width="112" height="4" fill="#808080"/>
<rect x="8" y="60" width="112" height="4" fill="#808080"/>
<rect x="8" y="64" width="120" height="4" fill="#808080"/>
<rect x="8" y="68" width="120" height="4" fill="#808080"/>
<rect x="8" y="96" width="120" height="4" fill="#808080"/>
<rect width="120" height="4" transform="matrix(-1 0 0 1 376 96)" fill="#808080"/>
<rect x="8" y="100" width="120" height="4" fill="#808080"/>
<rect width="120" height="4" transform="matrix(-1 0 0 1 376 100)" fill="#808080"/>
<rect x="8" y="104" width="120" height="4" fill="#808080"/>
<rect width="120" height="4" transform="matrix(-1 0 0 1 376 104)" fill="#808080"/>
<rect x="8" y="108" width="120" height="4" fill="#808080"/>
<rect width="120" height="4" transform="matrix(-1 0 0 1 376 108)" fill="#808080"/>
<rect x="8" y="136" width="112" height="4" fill="#808080"/>
<rect width="112" height="4" transform="matrix(-1 0 0 1 376 136)" fill="#808080"/>
<rect x="8" y="140" width="112" height="4" fill="#808080"/>
<rect width="112" height="4" transform="matrix(-1 0 0 1 376 140)" fill="#808080"/>
<rect x="8" y="144" width="104" height="4" fill="#808080"/>
<rect width="104" height="4" transform="matrix(-1 0 0 1 376 144)" fill="#808080"/>
<rect x="8" y="148" width="104" height="4" fill="#808080"/>
<rect width="104" height="4" transform="matrix(-1 0 0 1 376 148)" fill="#808080"/>
<rect y="152" width="112" height="4" fill="#808080"/>
<rect width="112" height="4" transform="matrix(-1 0 0 1 384 152)" fill="#808080"/>
<rect y="156" width="112" height="4" fill="#808080"/>
<rect width="112" height="4" transform="matrix(-1 0 0 1 384 156)" fill="#808080"/>
<rect x="8" y="72" width="16" height="4" fill="#808080"/>
<rect width="16" height="4" transform="matrix(-1 0 0 1 376 72)" fill="#808080"/>
<rect x="8" y="112" width="16" height="4" fill="#808080"/>
<rect width="16" height="4" transform="matrix(-1 0 0 1 376 112)" fill="#808080"/>
<rect x="40" y="72" width="16" height="4" fill="#808080"/>
<rect width="16" height="4" transform="matrix(-1 0 0 1 344 72)" fill="#808080"/>
<rect x="40" y="112" width="16" height="4" fill="#808080"/>
<rect width="16" height="4" transform="matrix(-1 0 0 1 344 112)" fill="#808080"/>
<rect x="72" y="72" width="16" height="4" fill="#808080"/>
<rect width="16" height="4" transform="matrix(-1 0 0 1 312 72)" fill="#808080"/>
<rect x="72" y="112" width="16" height="4" fill="#808080"/>
<rect width="16" height="4" transform="matrix(-1 0 0 1 312 112)" fill="#808080"/>
<rect x="104" y="72" width="24" height="4" fill="#808080"/>
<rect width="24" height="4" transform="matrix(-1 0 0 1 280 72)" fill="#808080"/>
<rect x="104" y="112" width="24" height="4" fill="#808080"/>
<rect width="24" height="4" transform="matrix(-1 0 0 1 280 112)" fill="#808080"/>
<rect x="8" y="76" width="16" height="4" fill="#808080"/>
<rect width="16" height="4" transform="matrix(-1 0 0 1 376 76)" fill="#808080"/>
<rect x="8" y="116" width="16" height="4" fill="#808080"/>
<rect width="16" height="4" transform="matrix(-1 0 0 1 376 116)" fill="#808080"/>
<rect x="40" y="76" width="16" height="4" fill="#808080"/>
<rect width="16" height="4" transform="matrix(-1 0 0 1 344 76)" fill="#808080"/>
<rect x="40" y="116" width="16" height="4" fill="#808080"/>
<rect width="16" height="4" transform="matrix(-1 0 0 1 344 116)" fill="#808080"/>
<rect x="72" y="76" width="16" height="4" fill="#808080"/>
<rect width="16" height="4" transform="matrix(-1 0 0 1 312 76)" fill="#808080"/>
<rect x="72" y="116" width="16" height="4" fill="#808080"/>
<rect width="16" height="4" transform="matrix(-1 0 0 1 312 116)" fill="#808080"/>
<rect x="104" y="76" width="24" height="4" fill="#808080"/>
<rect width="24" height="4" transform="matrix(-1 0 0 1 280 76)" fill="#808080"/>
<rect x="104" y="116" width="24" height="4" fill="#808080"/>
<rect width="24" height="4" transform="matrix(-1 0 0 1 280 116)" fill="#808080"/>
<rect x="8" y="80" width="16" height="4" fill="#808080"/>
<rect width="16" height="4" transform="matrix(-1 0 0 1 376 80)" fill="#808080"/>
<rect x="8" y="120" width="16" height="4" fill="#808080"/>
<rect width="16" height="4" transform="matrix(-1 0 0 1 376 120)" fill="#808080"/>
<rect x="40" y="80" width="16" height="4" fill="#808080"/>
<rect width="16" height="4" transform="matrix(-1 0 0 1 344 80)" fill="#808080"/>
<rect x="40" y="120" width="16" height="4" fill="#808080"/>
<rect width="16" height="4" transform="matrix(-1 0 0 1 344 120)" fill="#808080"/>
<rect x="72" y="80" width="16" height="4" fill="#808080"/>
<rect width="16" height="4" transform="matrix(-1 0 0 1 312 80)" fill="#808080"/>
<rect x="72" y="120" width="16" height="4" fill="#808080"/>
<rect width="16" height="4" transform="matrix(-1 0 0 1 312 120)" fill="#808080"/>
<rect x="104" y="80" width="24" height="4" fill="#808080"/>
<rect width="24" height="4" transform="matrix(-1 0 0 1 280 80)" fill="#808080"/>
<rect x="104" y="120" width="24" height="4" fill="#808080"/>
<rect width="24" height="4" transform="matrix(-1 0 0 1 280 120)" fill="#808080"/>
<rect x="8" y="84" width="16" height="4" fill="#808080"/>
<rect width="16" height="4" transform="matrix(-1 0 0 1 376 84)" fill="#808080"/>
<rect x="8" y="124" width="16" height="4" fill="#808080"/>
<rect width="16" height="4" transform="matrix(-1 0 0 1 376 124)" fill="#808080"/>
<rect x="40" y="84" width="16" height="4" fill="#808080"/>
<rect width="16" height="4" transform="matrix(-1 0 0 1 344 84)" fill="#808080"/>
<rect x="40" y="124" width="16" height="4" fill="#808080"/>
<rect width="16" height="4" transform="matrix(-1 0 0 1 344 124)" fill="#808080"/>
<rect x="72" y="84" width="16" height="4" fill="#808080"/>
<rect width="16" height="4" transform="matrix(-1 0 0 1 312 84)" fill="#808080"/>
<rect x="72" y="124" width="16" height="4" fill="#808080"/>
<rect width="16" height="4" transform="matrix(-1 0 0 1 312 124)" fill="#808080"/>
<rect x="104" y="84" width="24" height="4" fill="#808080"/>
<rect width="24" height="4" transform="matrix(-1 0 0 1 280 84)" fill="#808080"/>
<rect x="104" y="124" width="24" height="4" fill="#808080"/>
<rect width="24" height="4" transform="matrix(-1 0 0 1 280 124)" fill="#808080"/>
<rect x="8" y="88" width="16" height="4" fill="#808080"/>
<rect width="16" height="4" transform="matrix(-1 0 0 1 376 88)" fill="#808080"/>
<rect x="8" y="128" width="16" height="4" fill="#808080"/>
<rect width="16" height="4" transform="matrix(-1 0 0 1 376 128)" fill="#808080"/>
<rect x="40" y="88" width="16" height="4" fill="#808080"/>
<rect width="16" height="4" transform="matrix(-1 0 0 1 344 88)" fill="#808080"/>
<rect x="40" y="128" width="16" height="4" fill="#808080"/>
<rect width="16" height="4" transform="matrix(-1 0 0 1 344 128)" fill="#808080"/>
<rect x="72" y="88" width="16" height="4" fill="#808080"/>
<rect width="16" height="4" transform="matrix(-1 0 0 1 312 88)" fill="#808080"/>
<rect x="72" y="128" width="16" height="4" fill="#808080"/>
<rect width="16" height="4" transform="matrix(-1 0 0 1 312 128)" fill="#808080"/>
<rect x="104" y="88" width="24" height="4" fill="#808080"/>
<rect width="24" height="4" transform="matrix(-1 0 0 1 280 88)" fill="#808080"/>
<rect x="104" y="128" width="24" height="4" fill="#808080"/>
<rect width="24" height="4" transform="matrix(-1 0 0 1 280 128)" fill="#808080"/>
<rect x="8" y="92" width="16" height="4" fill="#808080"/>
<rect width="16" height="4" transform="matrix(-1 0 0 1 376 92)" fill="#808080"/>
<rect x="8" y="132" width="16" height="4" fill="#808080"/>
<rect width="16" height="4" transform="matrix(-1 0 0 1 376 132)" fill="#808080"/>
<rect x="40" y="92" width="16" height="4" fill="#808080"/>
<rect width="16" height="4" transform="matrix(-1 0 0 1 344 92)" fill="#808080"/>
<rect x="40" y="132" width="16" height="4" fill="#808080"/>
<rect width="16" height="4" transform="matrix(-1 0 0 1 344 132)" fill="#808080"/>
<rect x="72" y="92" width="16" height="4" fill="#808080"/>
<rect width="16" height="4" transform="matrix(-1 0 0 1 312 92)" fill="#808080"/>
<rect x="72" y="132" width="16" height="4" fill="#808080"/>
<rect width="16" height="4" transform="matrix(-1 0 0 1 312 132)" fill="#808080"/>
<rect x="104" y="92" width="24" height="4" fill="#808080"/>
<rect width="24" height="4" transform="matrix(-1 0 0 1 280 92)" fill="#808080"/>
<rect x="104" y="132" width="24" height="4" fill="#808080"/>
<rect width="24" height="4" transform="matrix(-1 0 0 1 280 132)" fill="#808080"/>
<rect x="136" y="64" width="16" height="4" fill="black"/>
<rect x="136" y="68" width="16" height="4" fill="black"/>
<rect x="136" y="72" width="16" height="4" fill="black"/>
<rect x="136" y="76" width="16" height="4" fill="black"/>
<rect x="136" y="80" width="16" height="4" fill="black"/>
<rect x="136" y="84" width="16" height="4" fill="black"/>
<rect x="136" y="88" width="16" height="4" fill="black"/>
<rect x="136" y="92" width="16" height="4" fill="black"/>
<rect x="136" y="96" width="16" height="4" fill="black"/>
<rect x="136" y="100" width="16" height="4" fill="black"/>
<rect x="168" y="64" width="16" height="4" fill="black"/>
<rect x="168" y="68" width="16" height="4" fill="black"/>
<rect x="168" y="72" width="16" height="4" fill="black"/>
<rect x="168" y="76" width="16" height="4" fill="black"/>
<rect x="168" y="80" width="16" height="4" fill="black"/>
<rect x="168" y="84" width="16" height="4" fill="black"/>
<rect x="168" y="88" width="16" height="4" fill="black"/>
<rect x="168" y="92" width="16" height="4" fill="black"/>
<rect x="168" y="96" width="16" height="4" fill="black"/>
<rect x="168" y="100" width="16" height="4" fill="black"/>
<rect x="200" y="64" width="16" height="4" fill="black"/>
<rect x="200" y="68" width="16" height="4" fill="black"/>
<rect x="200" y="72" width="16" height="4" fill="black"/>
<rect x="200" y="76" width="16" height="4" fill="black"/>
<rect x="200" y="80" width="16" height="4" fill="black"/>
<rect x="200" y="84" width="16" height="4" fill="black"/>
<rect x="200" y="88" width="16" height="4" fill="black"/>
<rect x="200" y="92" width="16" height="4" fill="black"/>
<rect x="200" y="96" width="16" height="4" fill="black"/>
<rect x="200" y="100" width="16" height="4" fill="black"/>
<rect x="232" y="64" width="16" height="4" fill="black"/>
<rect x="232" y="68" width="16" height="4" fill="black"/>
<rect x="232" y="72" width="16" height="4" fill="black"/>
<rect x="232" y="76" width="16" height="4" fill="black"/>
<rect x="232" y="80" width="16" height="4" fill="black"/>
<rect x="232" y="84" width="16" height="4" fill="black"/>
<rect x="232" y="88" width="16" height="4" fill="black"/>
<rect x="232" y="92" width="16" height="4" fill="black"/>
<rect x="232" y="96" width="16" height="4" fill="black"/>
<rect x="232" y="100" width="16" height="4" fill="black"/>
<rect x="264" y="56" width="112" height="4" fill="#808080"/>
<rect x="264" y="60" width="112" height="4" fill="#808080"/>
<rect x="256" y="64" width="120" height="4" fill="#808080"/>
<rect x="256" y="68" width="120" height="4" fill="#808080"/>
<rect y="44" width="120" height="4" fill="#808080"/>
<rect y="44" width="120" height="4" fill="#808080"/>
<rect x="264" y="44" width="120" height="4" fill="#808080"/>
<rect x="232" y="16" width="128" height="4" fill="#808080"/>
<rect x="232" y="20" width="128" height="4" fill="#808080"/>
<rect x="240" y="24" width="128" height="4" fill="#808080"/>
<rect x="240" y="28" width="128" height="4" fill="#808080"/>
<rect x="256" y="32" width="120" height="4" fill="#808080"/>
<rect x="256" y="36" width="120" height="4" fill="#808080"/>
<rect x="184" y="24" width="4" height="2" fill="black"/>
<rect x="196" y="24" width="4" height="2" fill="black"/>
<rect x="184" y="26" width="2" height="2" fill="black"/>
<rect x="184" y="28" width="2" height="2" fill="black"/>
<rect x="182" y="30" width="2" height="2" fill="black"/>
<rect x="182" y="32" width="2" height="2" fill="black"/>
<rect x="188" y="32" width="2" height="2" fill="black"/>
<rect x="194" y="32" width="2" height="2" fill="black"/>
<rect x="200" y="32" width="2" height="2" fill="black"/>
<rect x="200" y="34" width="4" height="2" fill="black"/>
<rect x="200" y="36" width="2" height="2" fill="black"/>
<rect x="204" y="36" width="2" height="2" fill="black"/>
<rect x="204" y="32" width="2" height="2" fill="black"/>
<rect x="178" y="32" width="2" height="2" fill="black"/>
<rect x="178" y="36" width="2" height="2" fill="black"/>
<rect x="180" y="34" width="4" height="2" fill="black"/>
<rect x="182" y="36" width="2" height="2" fill="black"/>
<rect x="184" y="38" width="2" height="2" fill="black"/>
<rect x="198" y="38" width="2" height="2" fill="black"/>
<rect x="188" y="26" width="2" height="2" fill="black"/>
<rect x="190" y="28" width="4" height="2" fill="black"/>
<rect x="198" y="28" width="2" height="2" fill="black"/>
<rect x="200" y="30" width="2" height="2" fill="black"/>
<rect x="186" y="26" width="2" height="2" fill="white"/>
<rect x="186" y="28" width="4" height="2" fill="white"/>
<rect x="190" y="30" width="4" height="2" fill="white"/>
<rect x="190" y="32" width="4" height="2" fill="white"/>
<rect x="186" y="34" width="12" height="2" fill="white"/>
<rect x="184" y="36" width="16" height="2" fill="white"/>
<rect x="186" y="38" width="12" height="2" fill="white"/>
<rect x="184" y="30" width="6" height="2" fill="white"/>
<rect x="184" y="32" width="4" height="2" fill="white"/>
<rect x="184" y="34" width="2" height="2" fill="white"/>
<rect x="198" y="34" width="2" height="2" fill="white"/>
<rect x="194" y="28" width="4" height="2" fill="white"/>
<rect x="194" y="30" width="6" height="2" fill="white"/>
<rect x="196" y="32" width="4" height="2" fill="white"/>
<rect x="196" y="26" width="2" height="2" fill="white"/>
<rect x="194" y="26" width="2" height="2" fill="black"/>
<rect x="198" y="26" width="2" height="2" fill="black"/>
</svg>
