<svg width="16" height="16" viewBox="0 0 16 16" fill="none" xmlns="http://www.w3.org/2000/svg">
<g clip-path="url(#clip0_562_25338)">
<rect x="1" width="1" height="1" fill="#E6E6E6"/>
<rect x="1" y="13" width="1" height="1" fill="#E6E6E6"/>
<rect x="14" y="13" width="1" height="1" fill="#E6E6E6"/>
<rect y="1" width="1" height="1" fill="#E6E6E6"/>
<rect y="14" width="1" height="1" fill="#E6E6E6"/>
<rect x="13" y="14" width="1" height="1" fill="#E6E6E6"/>
<rect x="1" y="2" width="1" height="1" fill="#E6E6E6"/>
<rect x="1" y="15" width="1" height="1" fill="#E6E6E6"/>
<rect x="14" y="15" width="1" height="1" fill="#E6E6E6"/>
<rect x="2" y="1" width="1" height="1" fill="#E6E6E6"/>
<rect x="5" y="4" width="2" height="1" fill="#E6E6E6"/>
<rect x="6" y="12" width="5" height="1" fill="#E6E6E6"/>
<rect x="7" y="5" width="1" height="1" fill="#E6E6E6"/>
<rect x="9" y="5" width="1" height="1" fill="#E6E6E6"/>
<rect x="8" y="6" width="1" height="1" fill="#E6E6E6"/>
<rect x="3" y="8" width="1" height="1" fill="#E6E6E6"/>
<rect x="13" y="8" width="1" height="1" fill="#E6E6E6"/>
<rect x="7" y="8" width="1" height="1" fill="#E6E6E6"/>
<rect x="10" y="8" width="1" height="1" fill="#E6E6E6"/>
<rect x="11" y="11" width="1" height="1" fill="#E6E6E6"/>
<rect x="5" y="11" width="1" height="1" fill="#E6E6E6"/>
<rect x="3" y="10" width="1" height="1" fill="#E6E6E6"/>
<rect x="13" y="10" width="1" height="1" fill="#E6E6E6"/>
<rect x="4" y="7" width="1" height="4" fill="#E6E6E6"/>
<rect x="12" y="7" width="1" height="4" fill="#E6E6E6"/>
<rect x="5" y="5" width="1" height="2" fill="#E6E6E6"/>
<rect x="11" y="5" width="1" height="2" fill="#E6E6E6"/>
<rect x="10" y="4" width="2" height="1" fill="#E6E6E6"/>
<rect x="2" y="14" width="1" height="1" fill="#E6E6E6"/>
<rect x="15" y="14" width="1" height="1" fill="#E6E6E6"/>
<rect x="14" width="1" height="1" fill="#E6E6E6"/>
<rect x="13" y="1" width="1" height="1" fill="#E6E6E6"/>
<rect x="14" y="2" width="1" height="1" fill="#E6E6E6"/>
<rect x="15" y="1" width="1" height="1" fill="#E6E6E6"/>
</g>
<defs>
<clipPath id="clip0_562_25338">
<rect width="16" height="16" fill="white"/>
</clipPath>
</defs>
</svg>
