<svg width="24" height="48" viewBox="0 0 24 48" fill="none" xmlns="http://www.w3.org/2000/svg">
<g clip-path="url(#clip0_571_25506)">
<rect x="7" width="17" height="1" fill="black"/>
<rect x="7" y="20" width="7" height="1" fill="black"/>
<rect x="7" y="1" width="17" height="46" fill="white"/>
<rect x="5" y="2" width="2" height="44" fill="white"/>
<rect x="4" y="3" width="1" height="42" fill="white"/>
<rect x="3" y="4" width="1" height="40" fill="white"/>
<rect x="2" y="5" width="1" height="38" fill="white"/>
<rect x="1" y="7" width="1" height="34" fill="white"/>
<rect x="5" y="1" width="2" height="1" fill="black"/>
<rect x="5" y="46" width="2" height="1" fill="black"/>
<rect x="7" y="47" width="17" height="1" fill="black"/>
<rect x="4" y="2" width="1" height="1" fill="black"/>
<rect x="4" y="45" width="1" height="1" fill="black"/>
<rect x="3" y="3" width="1" height="1" fill="black"/>
<rect x="3" y="44" width="1" height="1" fill="black"/>
<rect x="2" y="4" width="1" height="1" fill="black"/>
<rect x="2" y="43" width="1" height="1" fill="black"/>
<rect x="1" y="5" width="1" height="2" fill="black"/>
<rect x="1" y="41" width="1" height="2" fill="black"/>
<rect y="7" width="1" height="34" fill="black"/>
</g>
<defs>
<clipPath id="clip0_571_25506">
<rect width="24" height="48" fill="white"/>
</clipPath>
</defs>
</svg>
