<?xml version="1.0" encoding="UTF-8" standalone="yes"?>
<svg width="360" height="360" viewBox="0 0 360 360" fill="none" version="1.2" baseProfile="tiny-ps" xmlns="http://www.w3.org/2000/svg">
  <title>Catarchy</title>
  <rect width="360" height="360" fill="white"/>
  <path d="M97 68H82V83H97V68Z" fill="black"/>
  <path d="M112 68H97V83H112V68Z" fill="black"/>
  <path d="M187 68H172V83H187V68Z" fill="black"/>
  <path d="M202 68H187V83H202V68Z" fill="black"/>
  <path d="M97 83H82V98H97V83Z" fill="black"/>
  <path d="M112 83H97V98H112V83Z" fill="white"/>
  <path d="M127 83H112V98H127V83Z" fill="black"/>
  <path d="M172 83H157V98H172V83Z" fill="black"/>
  <path d="M187 83H172V98H187V83Z" fill="white"/>
  <path d="M202 83H187V98H202V83Z" fill="black"/>
  <path d="M307 83H292V98H307V83Z" fill="black"/>
  <path d="M97 98H82V113H97V98Z" fill="black"/>
  <path d="M112 98H97V113H112V98Z" fill="white"/>
  <path d="M127 98H112V113H127V98Z" fill="white"/>
  <path d="M142 98H127V113H142V98Z" fill="black"/>
  <path d="M157 98H142V113H157V98Z" fill="black"/>
  <path d="M172 98H157V113H172V98Z" fill="white"/>
  <path d="M187 98H172V113H187V98Z" fill="white"/>
  <path d="M202 98H187V113H202V98Z" fill="black"/>
  <path d="M292 98H277V113H292V98Z" fill="black"/>
  <path d="M307 98H292V113H307V98Z" fill="white"/>
  <path d="M322 98H307V113H322V98Z" fill="black"/>
  <path d="M82 113H67V128H82V113Z" fill="black"/>
  <path d="M97 113H82V128H97V113Z" fill="white"/>
  <path d="M112 113H97V128H112V113Z" fill="white"/>
  <path d="M127 113H112V128H127V113Z" fill="white"/>
  <path d="M142 113H127V128H142V113Z" fill="white"/>
  <path d="M157 113H142V128H157V113Z" fill="white"/>
  <path d="M172 113H157V128H172V113Z" fill="white"/>
  <path d="M187 113H172V128H187V113Z" fill="white"/>
  <path d="M202 113H187V128H202V113Z" fill="white"/>
  <path d="M217 113H202V128H217V113Z" fill="black"/>
  <path d="M292 113H277V128H292V113Z" fill="black"/>
  <path d="M307 113H292V128H307V113Z" fill="white"/>
  <path d="M322 113H307V128H322V113Z" fill="black"/>
  <path d="M52 128H37V143H52V128Z" fill="black"/>
  <path d="M82 128H67V143H82V128Z" fill="black"/>
  <path d="M97 128H82V143H97V128Z" fill="white"/>
  <path d="M112 128H97V143H112V128Z" fill="white"/>
  <path d="M127 128H112V143H127V128Z" fill="black"/>
  <path d="M142 128H127V143H142V128Z" fill="white"/>
  <path d="M157 128H142V143H157V128Z" fill="white"/>
  <path d="M172 128H157V143H172V128Z" fill="black"/>
  <path d="M187 128H172V143H187V128Z" fill="white"/>
  <path d="M202 128H187V143H202V128Z" fill="white"/>
  <path d="M217 128H202V143H217V128Z" fill="black"/>
  <path d="M247 128H232V143H247V128Z" fill="black"/>
  <path d="M292 128H277V143H292V128Z" fill="black"/>
  <path d="M307 128H292V143H307V128Z" fill="white"/>
  <path d="M322 128H307V143H322V128Z" fill="black"/>
  <path d="M67 143H52V158H67V143Z" fill="black"/>
  <path d="M82 143H67V158H82V143Z" fill="black"/>
  <path d="M97 143H82V158H97V143Z" fill="white"/>
  <path d="M112 143H97V158H112V143Z" fill="white"/>
  <path d="M127 143H112V158H127V143Z" fill="white"/>
  <path d="M142 143H127V158H142V143Z" fill="white"/>
  <path d="M157 143H142V158H157V143Z" fill="white"/>
  <path d="M172 143H157V158H172V143Z" fill="white"/>
  <path d="M187 143H172V158H187V143Z" fill="white"/>
  <path d="M202 143H187V158H202V143Z" fill="white"/>
  <path d="M217 143H202V158H217V143Z" fill="black"/>
  <path d="M232 143H217V158H232V143Z" fill="black"/>
  <path d="M292 143H277V158H292V143Z" fill="black"/>
  <path d="M307 143H292V158H307V143Z" fill="white"/>
  <path d="M322 143H307V158H322V143Z" fill="black"/>
  <path d="M52 158H37V173H52V158Z" fill="black"/>
  <path d="M82 158H67V173H82V158Z" fill="black"/>
  <path d="M97 158H82V173H97V158Z" fill="white"/>
  <path d="M112 158H97V173H112V158Z" fill="white"/>
  <path d="M127 158H112V173H127V158Z" fill="white"/>
  <path d="M142 158H127V173H142V158Z" fill="white"/>
  <path d="M157 158H142V173H157V158Z" fill="white"/>
  <path d="M172 158H157V173H172V158Z" fill="white"/>
  <path d="M187 158H172V173H187V158Z" fill="white"/>
  <path d="M202 158H187V173H202V158Z" fill="white"/>
  <path d="M217 158H202V173H217V158Z" fill="black"/>
  <path d="M247 158H232V173H247V158Z" fill="black"/>
  <path d="M292 158H277V173H292V158Z" fill="black"/>
  <path d="M307 158H292V173H307V158Z" fill="white"/>
  <path d="M322 158H307V173H322V158Z" fill="black"/>
  <path d="M97 173H82V188H97V173Z" fill="black"/>
  <path d="M112 173H97V188H112V173Z" fill="white"/>
  <path d="M127 173H112V188H127V173Z" fill="white"/>
  <path d="M142 173H127V188H142V173Z" fill="white"/>
  <path d="M157 173H142V188H157V173Z" fill="white"/>
  <path d="M172 173H157V188H172V173Z" fill="white"/>
  <path d="M187 173H172V188H187V173Z" fill="white"/>
  <path d="M202 173H187V188H202V173Z" fill="black"/>
  <path d="M292 173H277V188H292V173Z" fill="black"/>
  <path d="M307 173H292V188H307V173Z" fill="white"/>
  <path d="M322 173H307V188H322V173Z" fill="black"/>
  <path d="M97 188H82V203H97V188Z" fill="black"/>
  <path d="M112 188H97V203H112V188Z" fill="white"/>
  <path d="M127 188H112V203H127V188Z" fill="white"/>
  <path d="M142 188H127V203H142V188Z" fill="white"/>
  <path d="M157 188H142V203H157V188Z" fill="white"/>
  <path d="M172 188H157V203H172V188Z" fill="white"/>
  <path d="M187 188H172V203H187V188Z" fill="white"/>
  <path d="M202 188H187V203H202V188Z" fill="white"/>
  <path d="M217 188H202V203H217V188Z" fill="black"/>
  <path d="M232 188H217V203H232V188Z" fill="black"/>
  <path d="M247 188H232V203H247V188Z" fill="black"/>
  <path d="M262 188H247V203H262V188Z" fill="black"/>
  <path d="M277 188H262V203H277V188Z" fill="black"/>
  <path d="M292 188H277V203H292V188Z" fill="black"/>
  <path d="M307 188H292V203H307V188Z" fill="white"/>
  <path d="M322 188H307V203H322V188Z" fill="black"/>
  <path d="M97 203H82V218H97V203Z" fill="black"/>
  <path d="M112 203H97V218H112V203Z" fill="white"/>
  <path d="M127 203H112V218H127V203Z" fill="white"/>
  <path d="M142 203H127V218H142V203Z" fill="white"/>
  <path d="M157 203H142V218H157V203Z" fill="white"/>
  <path d="M172 203H157V218H172V203Z" fill="white"/>
  <path d="M187 203H172V218H187V203Z" fill="white"/>
  <path d="M202 203H187V218H202V203Z" fill="white"/>
  <path d="M217 203H202V218H217V203Z" fill="white"/>
  <path d="M232 203H217V218H232V203Z" fill="white"/>
  <path d="M247 203H232V218H247V203Z" fill="white"/>
  <path d="M262 203H247V218H262V203Z" fill="white"/>
  <path d="M277 203H262V218H277V203Z" fill="white"/>
  <path d="M292 203H277V218H292V203Z" fill="white"/>
  <path d="M307 203H292V218H307V203Z" fill="white"/>
  <path d="M322 203H307V218H322V203Z" fill="black"/>
  <path d="M97 218H82V233H97V218Z" fill="black"/>
  <path d="M112 218H97V233H112V218Z" fill="white"/>
  <path d="M127 218H112V233H127V218Z" fill="white"/>
  <path d="M142 218H127V233H142V218Z" fill="white"/>
  <path d="M157 218H142V233H157V218Z" fill="white"/>
  <path d="M172 218H157V233H172V218Z" fill="white"/>
  <path d="M187 218H172V233H187V218Z" fill="black"/>
  <path d="M202 218H187V233H202V218Z" fill="white"/>
  <path d="M217 218H202V233H217V218Z" fill="white"/>
  <path d="M232 218H217V233H232V218Z" fill="white"/>
  <path d="M247 218H232V233H247V218Z" fill="white"/>
  <path d="M262 218H247V233H262V218Z" fill="white"/>
  <path d="M277 218H262V233H277V218Z" fill="white"/>
  <path d="M292 218H277V233H292V218Z" fill="white"/>
  <path d="M307 218H292V233H307V218Z" fill="white"/>
  <path d="M322 218H307V233H322V218Z" fill="black"/>
  <path d="M97 233H82V248H97V233Z" fill="black"/>
  <path d="M112 233H97V248H112V233Z" fill="white"/>
  <path d="M127 233H112V248H127V233Z" fill="white"/>
  <path d="M142 233H127V248H142V233Z" fill="black"/>
  <path d="M157 233H142V248H157V233Z" fill="white"/>
  <path d="M172 233H157V248H172V233Z" fill="white"/>
  <path d="M187 233H172V248H187V233Z" fill="black"/>
  <path d="M202 233H187V248H202V233Z" fill="white"/>
  <path d="M217 233H202V248H217V233Z" fill="white"/>
  <path d="M232 233H217V248H232V233Z" fill="white"/>
  <path d="M247 233H232V248H247V233Z" fill="white"/>
  <path d="M262 233H247V248H262V233Z" fill="white"/>
  <path d="M277 233H262V248H277V233Z" fill="white"/>
  <path d="M292 233H277V248H292V233Z" fill="white"/>
  <path d="M307 233H292V248H307V233Z" fill="white"/>
  <path d="M322 233H307V248H322V233Z" fill="black"/>
  <path d="M97 248H82V263H97V248Z" fill="black"/>
  <path d="M112 248H97V263H112V248Z" fill="white"/>
  <path d="M127 248H112V263H127V248Z" fill="white"/>
  <path d="M142 248H127V263H142V248Z" fill="black"/>
  <path d="M157 248H142V263H157V248Z" fill="white"/>
  <path d="M172 248H157V263H172V248Z" fill="white"/>
  <path d="M187 248H172V263H187V248Z" fill="black"/>
  <path d="M202 248H187V263H202V248Z" fill="white"/>
  <path d="M217 248H202V263H217V248Z" fill="white"/>
  <path d="M232 248H217V263H232V248Z" fill="white"/>
  <path d="M247 248H232V263H247V248Z" fill="black"/>
  <path d="M262 248H247V263H262V248Z" fill="black"/>
  <path d="M277 248H262V263H277V248Z" fill="black"/>
  <path d="M292 248H277V263H292V248Z" fill="white"/>
  <path d="M307 248H292V263H307V248Z" fill="white"/>
  <path d="M322 248H307V263H322V248Z" fill="black"/>
  <path d="M97 263H82V278H97V263Z" fill="black"/>
  <path d="M112 263H97V278H112V263Z" fill="white"/>
  <path d="M127 263H112V278H127V263Z" fill="white"/>
  <path d="M142 263H127V278H142V263Z" fill="black"/>
  <path d="M157 263H142V278H157V263Z" fill="white"/>
  <path d="M172 263H157V278H172V263Z" fill="white"/>
  <path d="M187 263H172V278H187V263Z" fill="black"/>
  <path d="M202 263H187V278H202V263Z" fill="white"/>
  <path d="M217 263H202V278H217V263Z" fill="white"/>
  <path d="M232 263H217V278H232V263Z" fill="black"/>
  <path d="M247 263H232V278H247V263Z" fill="white"/>
  <path d="M262 263H247V278H262V263Z" fill="white"/>
  <path d="M277 263H262V278H277V263Z" fill="white"/>
  <path d="M292 263H277V278H292V263Z" fill="white"/>
  <path d="M307 263H292V278H307V263Z" fill="black"/>
  <path d="M112 278H97V293H112V278Z" fill="black"/>
  <path d="M127 278H112V293H127V278Z" fill="black"/>
  <path d="M142 278H127V293H142V278Z" fill="black"/>
  <path d="M157 278H142V293H157V278Z" fill="black"/>
  <path d="M172 278H157V293H172V278Z" fill="black"/>
  <path d="M187 278H172V293H187V278Z" fill="black"/>
  <path d="M202 278H187V293H202V278Z" fill="black"/>
  <path d="M217 278H202V293H217V278Z" fill="black"/>
  <path d="M232 278H217V293H232V278Z" fill="black"/>
  <path d="M247 278H232V293H247V278Z" fill="black"/>
  <path d="M262 278H247V293H262V278Z" fill="black"/>
  <path d="M277 278H262V293H277V278Z" fill="black"/>
  <path d="M292 278H277V293H292V278Z" fill="black"/>
</svg>