<svg width="36" height="28" viewBox="0 0 36 28" fill="none" xmlns="http://www.w3.org/2000/svg" image-rendering="crisp-edges">
<g clip-path="url(#clip0_428_584)">
<path d="M23 0H13V0.5H23V0Z" fill="black"/>
<path d="M23 0.5H13V1H23V0.5Z" fill="black"/>
<path d="M13 1H12V1.5H13V1Z" fill="black"/>
<path d="M24 1H23V1.5H24V1Z" fill="black"/>
<path d="M13 1.5H12V2H13V1.5Z" fill="black"/>
<path d="M24 1.5H23V2H24V1.5Z" fill="black"/>
<path d="M12 2H11V2.5H12V2Z" fill="black"/>
<path d="M25 2H24V2.5H25V2Z" fill="black"/>
<path d="M12 2.5H11V3H12V2.5Z" fill="black"/>
<path d="M25 2.5H24V3H25V2.5Z" fill="black"/>
<path d="M13 3H12V3.5H13V3Z" fill="black"/>
<path d="M24 3H23V3.5H24V3Z" fill="black"/>
<path d="M13 3.5H12V4H13V3.5Z" fill="black"/>
<path d="M24 3.5H23V4H24V3.5Z" fill="black"/>
<path d="M5 4H4V4.5H5V4Z" fill="black"/>
<path d="M7 4H6V4.5H7V4Z" fill="black"/>
<path d="M23 4H13V4.5H23V4Z" fill="black"/>
<path d="M30 4H29V4.5H30V4Z" fill="black"/>
<path d="M32 4H31V4.5H32V4Z" fill="black"/>
<path d="M5 4.5H4V5H5V4.5Z" fill="black"/>
<path d="M7 4.5H6V5H7V4.5Z" fill="black"/>
<path d="M23 4.5H13V5H23V4.5Z" fill="black"/>
<path d="M30 4.5H29V5H30V4.5Z" fill="black"/>
<path d="M32 4.5H31V5H32V4.5Z" fill="black"/>
<path d="M6 5H5V5.5H6V5Z" fill="black"/>
<path d="M31 5H30V5.5H31V5Z" fill="black"/>
<path d="M6 5.5H5V6H6V5.5Z" fill="black"/>
<path d="M31 5.5H30V6H31V5.5Z" fill="black"/>
<path d="M5 6H4V6.5H5V6Z" fill="black"/>
<path d="M7 6H6V6.5H7V6Z" fill="black"/>
<path d="M30 6H29V6.5H30V6Z" fill="black"/>
<path d="M32 6H31V6.5H32V6Z" fill="black"/>
<path d="M5 6.5H4V7H5V6.5Z" fill="black"/>
<path d="M7 6.5H6V7H7V6.5Z" fill="black"/>
<path d="M30 6.5H29V7H30V6.5Z" fill="black"/>
<path d="M32 6.5H31V7H32V6.5Z" fill="black"/>
<path d="M16 7H14V7.5H16V7Z" fill="black"/>
<path d="M22 7H20V7.5H22V7Z" fill="black"/>
<path d="M16 7.5H14V8H16V7.5Z" fill="black"/>
<path d="M22 7.5H20V8H22V7.5Z" fill="black"/>
<path d="M1 8H0V8.5H1V8Z" fill="black"/>
<path d="M3 8H2V8.5H3V8Z" fill="black"/>
<path d="M5 8H4V8.5H5V8Z" fill="black"/>
<path d="M7 8H6V8.5H7V8Z" fill="black"/>
<path d="M15 8H14V8.5H15V8Z" fill="black"/>
<path d="M16 8H15V8.5H16V8Z" fill="white"/>
<path d="M17 8H16V8.5H17V8Z" fill="black"/>
<path d="M20 8H19V8.5H20V8Z" fill="black"/>
<path d="M21 8H20V8.5H21V8Z" fill="white"/>
<path d="M22 8H21V8.5H22V8Z" fill="black"/>
<path d="M30 8H29V8.5H30V8Z" fill="black"/>
<path d="M32 8H31V8.5H32V8Z" fill="black"/>
<path d="M34 8H33V8.5H34V8Z" fill="black"/>
<path d="M36 8H35V8.5H36V8Z" fill="black"/>
<path d="M1 8.5H0V9H1V8.5Z" fill="black"/>
<path d="M3 8.5H2V9H3V8.5Z" fill="black"/>
<path d="M5 8.5H4V9H5V8.5Z" fill="black"/>
<path d="M7 8.5H6V9H7V8.5Z" fill="black"/>
<path d="M15 8.5H14V9H15V8.5Z" fill="black"/>
<path d="M16 8.5H15V9H16V8.5Z" fill="white"/>
<path d="M17 8.5H16V9H17V8.5Z" fill="black"/>
<path d="M20 8.5H19V9H20V8.5Z" fill="black"/>
<path d="M21 8.5H20V9H21V8.5Z" fill="white"/>
<path d="M22 8.5H21V9H22V8.5Z" fill="black"/>
<path d="M30 8.5H29V9H30V8.5Z" fill="black"/>
<path d="M32 8.5H31V9H32V8.5Z" fill="black"/>
<path d="M34 8.5H33V9H34V8.5Z" fill="black"/>
<path d="M36 8.5H35V9H36V8.5Z" fill="black"/>
<path d="M2 9H1V9.5H2V9Z" fill="black"/>
<path d="M6 9H5V9.5H6V9Z" fill="black"/>
<path d="M15 9H14V9.5H15V9Z" fill="black"/>
<path d="M17 9H15V9.5H17V9Z" fill="white"/>
<path d="M19 9H17V9.5H19V9Z" fill="black"/>
<path d="M21 9H19V9.5H21V9Z" fill="white"/>
<path d="M22 9H21V9.5H22V9Z" fill="black"/>
<path d="M31 9H30V9.5H31V9Z" fill="black"/>
<path d="M35 9H34V9.5H35V9Z" fill="black"/>
<path d="M2 9.5H1V10H2V9.5Z" fill="black"/>
<path d="M6 9.5H5V10H6V9.5Z" fill="black"/>
<path d="M15 9.5H14V10H15V9.5Z" fill="black"/>
<path d="M17 9.5H15V10H17V9.5Z" fill="white"/>
<path d="M19 9.5H17V10H19V9.5Z" fill="black"/>
<path d="M21 9.5H19V10H21V9.5Z" fill="white"/>
<path d="M22 9.5H21V10H22V9.5Z" fill="black"/>
<path d="M31 9.5H30V10H31V9.5Z" fill="black"/>
<path d="M35 9.5H34V10H35V9.5Z" fill="black"/>
<path d="M1 10H0V10.5H1V10Z" fill="black"/>
<path d="M3 10H2V10.5H3V10Z" fill="black"/>
<path d="M5 10H4V10.5H5V10Z" fill="black"/>
<path d="M7 10H6V10.5H7V10Z" fill="black"/>
<path d="M14 10H13V10.5H14V10Z" fill="black"/>
<path d="M22 10H14V10.5H22V10Z" fill="white"/>
<path d="M23 10H22V10.5H23V10Z" fill="black"/>
<path d="M30 10H29V10.5H30V10Z" fill="black"/>
<path d="M32 10H31V10.5H32V10Z" fill="black"/>
<path d="M34 10H33V10.5H34V10Z" fill="black"/>
<path d="M36 10H35V10.5H36V10Z" fill="black"/>
<path d="M1 10.5H0V11H1V10.5Z" fill="black"/>
<path d="M3 10.5H2V11H3V10.5Z" fill="black"/>
<path d="M5 10.5H4V11H5V10.5Z" fill="black"/>
<path d="M7 10.5H6V11H7V10.5Z" fill="black"/>
<path d="M14 10.5H13V11H14V10.5Z" fill="black"/>
<path d="M22 10.5H14V11H22V10.5Z" fill="white"/>
<path d="M23 10.5H22V11H23V10.5Z" fill="black"/>
<path d="M30 10.5H29V11H30V10.5Z" fill="black"/>
<path d="M32 10.5H31V11H32V10.5Z" fill="black"/>
<path d="M34 10.5H33V11H34V10.5Z" fill="black"/>
<path d="M36 10.5H35V11H36V10.5Z" fill="black"/>
<path d="M12 11H11V11.5H12V11Z" fill="black"/>
<path d="M14 11H13V11.5H14V11Z" fill="black"/>
<path d="M22 11H14V11.5H22V11Z" fill="white"/>
<path d="M23 11H22V11.5H23V11Z" fill="black"/>
<path d="M25 11H24V11.5H25V11Z" fill="black"/>
<path d="M12 11.5H11V12H12V11.5Z" fill="black"/>
<path d="M14 11.5H13V12H14V11.5Z" fill="black"/>
<path d="M22 11.5H14V12H22V11.5Z" fill="white"/>
<path d="M23 11.5H22V12H23V11.5Z" fill="black"/>
<path d="M25 11.5H24V12H25V11.5Z" fill="black"/>
<path d="M1 12H0V12.5H1V12Z" fill="black"/>
<path d="M3 12H2V12.5H3V12Z" fill="black"/>
<path d="M5 12H4V12.5H5V12Z" fill="black"/>
<path d="M7 12H6V12.5H7V12Z" fill="black"/>
<path d="M14 12H12V12.5H14V12Z" fill="black"/>
<path d="M15 12H14V12.5H15V12Z" fill="white"/>
<path d="M17 12H15V12.5H17V12Z" fill="black"/>
<path d="M19 12H17V12.5H19V12Z" fill="white"/>
<path d="M21 12H19V12.5H21V12Z" fill="black"/>
<path d="M22 12H21V12.5H22V12Z" fill="white"/>
<path d="M24 12H22V12.5H24V12Z" fill="black"/>
<path d="M30 12H29V12.5H30V12Z" fill="black"/>
<path d="M32 12H31V12.5H32V12Z" fill="black"/>
<path d="M34 12H33V12.5H34V12Z" fill="black"/>
<path d="M36 12H35V12.5H36V12Z" fill="black"/>
<path d="M1 12.5H0V13H1V12.5Z" fill="black"/>
<path d="M3 12.5H2V13H3V12.5Z" fill="black"/>
<path d="M5 12.5H4V13H5V12.5Z" fill="black"/>
<path d="M7 12.5H6V13H7V12.5Z" fill="black"/>
<path d="M14 12.5H12V13H14V12.5Z" fill="black"/>
<path d="M15 12.5H14V13H15V12.5Z" fill="white"/>
<path d="M17 12.5H15V13H17V12.5Z" fill="black"/>
<path d="M19 12.5H17V13H19V12.5Z" fill="white"/>
<path d="M21 12.5H19V13H21V12.5Z" fill="black"/>
<path d="M22 12.5H21V13H22V12.5Z" fill="white"/>
<path d="M24 12.5H22V13H24V12.5Z" fill="black"/>
<path d="M30 12.5H29V13H30V12.5Z" fill="black"/>
<path d="M32 12.5H31V13H32V12.5Z" fill="black"/>
<path d="M34 12.5H33V13H34V12.5Z" fill="black"/>
<path d="M36 12.5H35V13H36V12.5Z" fill="black"/>
<path d="M2 13H1V13.5H2V13Z" fill="black"/>
<path d="M6 13H5V13.5H6V13Z" fill="black"/>
<path d="M12 13H11V13.5H12V13Z" fill="black"/>
<path d="M14 13H13V13.5H14V13Z" fill="black"/>
<path d="M22 13H14V13.5H22V13Z" fill="white"/>
<path d="M23 13H22V13.5H23V13Z" fill="black"/>
<path d="M25 13H24V13.5H25V13Z" fill="black"/>
<path d="M31 13H30V13.5H31V13Z" fill="black"/>
<path d="M35 13H34V13.5H35V13Z" fill="black"/>
<path d="M2 13.5H1V14H2V13.5Z" fill="black"/>
<path d="M6 13.5H5V14H6V13.5Z" fill="black"/>
<path d="M12 13.5H11V14H12V13.5Z" fill="black"/>
<path d="M14 13.5H13V14H14V13.5Z" fill="black"/>
<path d="M22 13.5H14V14H22V13.5Z" fill="white"/>
<path d="M23 13.5H22V14H23V13.5Z" fill="black"/>
<path d="M25 13.5H24V14H25V13.5Z" fill="black"/>
<path d="M31 13.5H30V14H31V13.5Z" fill="black"/>
<path d="M35 13.5H34V14H35V13.5Z" fill="black"/>
<path d="M1 14H0V14.5H1V14Z" fill="black"/>
<path d="M3 14H2V14.5H3V14Z" fill="black"/>
<path d="M5 14H4V14.5H5V14Z" fill="black"/>
<path d="M7 14H6V14.5H7V14Z" fill="black"/>
<path d="M15 14H14V14.5H15V14Z" fill="black"/>
<path d="M21 14H15V14.5H21V14Z" fill="white"/>
<path d="M22 14H21V14.5H22V14Z" fill="black"/>
<path d="M30 14H29V14.5H30V14Z" fill="black"/>
<path d="M32 14H31V14.5H32V14Z" fill="black"/>
<path d="M34 14H33V14.5H34V14Z" fill="black"/>
<path d="M36 14H35V14.5H36V14Z" fill="black"/>
<path d="M1 14.5H0V15H1V14.5Z" fill="black"/>
<path d="M3 14.5H2V15H3V14.5Z" fill="black"/>
<path d="M5 14.5H4V15H5V14.5Z" fill="black"/>
<path d="M7 14.5H6V15H7V14.5Z" fill="black"/>
<path d="M15 14.5H14V15H15V14.5Z" fill="black"/>
<path d="M21 14.5H15V15H21V14.5Z" fill="white"/>
<path d="M22 14.5H21V15H22V14.5Z" fill="black"/>
<path d="M30 14.5H29V15H30V14.5Z" fill="black"/>
<path d="M32 14.5H31V15H32V14.5Z" fill="black"/>
<path d="M34 14.5H33V15H34V14.5Z" fill="black"/>
<path d="M36 14.5H35V15H36V14.5Z" fill="black"/>
<path d="M15 15H14V15.5H15V15Z" fill="black"/>
<path d="M21 15H15V15.5H21V15Z" fill="white"/>
<path d="M22 15H21V15.5H22V15Z" fill="black"/>
<path d="M15 15.5H14V16H15V15.5Z" fill="black"/>
<path d="M21 15.5H15V16H21V15.5Z" fill="white"/>
<path d="M22 15.5H21V16H22V15.5Z" fill="black"/>
<path d="M1 16H0V16.5H1V16Z" fill="black"/>
<path d="M3 16H2V16.5H3V16Z" fill="black"/>
<path d="M5 16H4V16.5H5V16Z" fill="black"/>
<path d="M7 16H6V16.5H7V16Z" fill="black"/>
<path d="M15 16H14V16.5H15V16Z" fill="black"/>
<path d="M21 16H15V16.5H21V16Z" fill="white"/>
<path d="M22 16H21V16.5H22V16Z" fill="black"/>
<path d="M30 16H29V16.5H30V16Z" fill="black"/>
<path d="M32 16H31V16.5H32V16Z" fill="black"/>
<path d="M34 16H33V16.5H34V16Z" fill="black"/>
<path d="M36 16H35V16.5H36V16Z" fill="black"/>
<path d="M1 16.5H0V17H1V16.5Z" fill="black"/>
<path d="M3 16.5H2V17H3V16.5Z" fill="black"/>
<path d="M5 16.5H4V17H5V16.5Z" fill="black"/>
<path d="M7 16.5H6V17H7V16.5Z" fill="black"/>
<path d="M15 16.5H14V17H15V16.5Z" fill="black"/>
<path d="M21 16.5H15V17H21V16.5Z" fill="white"/>
<path d="M22 16.5H21V17H22V16.5Z" fill="black"/>
<path d="M30 16.5H29V17H30V16.5Z" fill="black"/>
<path d="M32 16.5H31V17H32V16.5Z" fill="black"/>
<path d="M34 16.5H33V17H34V16.5Z" fill="black"/>
<path d="M36 16.5H35V17H36V16.5Z" fill="black"/>
<path d="M2 17H1V17.5H2V17Z" fill="black"/>
<path d="M6 17H5V17.5H6V17Z" fill="black"/>
<path d="M15 17H14V17.5H15V17Z" fill="black"/>
<path d="M16 17H15V17.5H16V17Z" fill="white"/>
<path d="M17 17H16V17.5H17V17Z" fill="black"/>
<path d="M19 17H17V17.5H19V17Z" fill="white"/>
<path d="M20 17H19V17.5H20V17Z" fill="black"/>
<path d="M21 17H20V17.5H21V17Z" fill="white"/>
<path d="M22 17H21V17.5H22V17Z" fill="black"/>
<path d="M31 17H30V17.5H31V17Z" fill="black"/>
<path d="M35 17H34V17.5H35V17Z" fill="black"/>
<path d="M2 17.5H1V18H2V17.5Z" fill="black"/>
<path d="M6 17.5H5V18H6V17.5Z" fill="black"/>
<path d="M15 17.5H14V18H15V17.5Z" fill="black"/>
<path d="M16 17.5H15V18H16V17.5Z" fill="white"/>
<path d="M17 17.5H16V18H17V17.5Z" fill="black"/>
<path d="M19 17.5H17V18H19V17.5Z" fill="white"/>
<path d="M20 17.5H19V18H20V17.5Z" fill="black"/>
<path d="M21 17.5H20V18H21V17.5Z" fill="white"/>
<path d="M22 17.5H21V18H22V17.5Z" fill="black"/>
<path d="M31 17.5H30V18H31V17.5Z" fill="black"/>
<path d="M35 17.5H34V18H35V17.5Z" fill="black"/>
<path d="M1 18H0V18.5H1V18Z" fill="black"/>
<path d="M3 18H2V18.5H3V18Z" fill="black"/>
<path d="M5 18H4V18.5H5V18Z" fill="black"/>
<path d="M7 18H6V18.5H7V18Z" fill="black"/>
<path d="M15 18H14V18.5H15V18Z" fill="black"/>
<path d="M16 18H15V18.5H16V18Z" fill="white"/>
<path d="M17 18H16V18.5H17V18Z" fill="black"/>
<path d="M19 18H17V18.5H19V18Z" fill="white"/>
<path d="M20 18H19V18.5H20V18Z" fill="black"/>
<path d="M21 18H20V18.5H21V18Z" fill="white"/>
<path d="M22 18H21V18.5H22V18Z" fill="black"/>
<path d="M30 18H29V18.5H30V18Z" fill="black"/>
<path d="M32 18H31V18.5H32V18Z" fill="black"/>
<path d="M34 18H33V18.5H34V18Z" fill="black"/>
<path d="M36 18H35V18.5H36V18Z" fill="black"/>
<path d="M1 18.5H0V19H1V18.5Z" fill="black"/>
<path d="M3 18.5H2V19H3V18.5Z" fill="black"/>
<path d="M5 18.5H4V19H5V18.5Z" fill="black"/>
<path d="M7 18.5H6V19H7V18.5Z" fill="black"/>
<path d="M15 18.5H14V19H15V18.5Z" fill="black"/>
<path d="M16 18.5H15V19H16V18.5Z" fill="white"/>
<path d="M17 18.5H16V19H17V18.5Z" fill="black"/>
<path d="M19 18.5H17V19H19V18.5Z" fill="white"/>
<path d="M20 18.5H19V19H20V18.5Z" fill="black"/>
<path d="M21 18.5H20V19H21V18.5Z" fill="white"/>
<path d="M22 18.5H21V19H22V18.5Z" fill="black"/>
<path d="M30 18.5H29V19H30V18.5Z" fill="black"/>
<path d="M32 18.5H31V19H32V18.5Z" fill="black"/>
<path d="M34 18.5H33V19H34V18.5Z" fill="black"/>
<path d="M36 18.5H35V19H36V18.5Z" fill="black"/>
<path d="M15 19H14V19.5H15V19Z" fill="black"/>
<path d="M16 19H15V19.5H16V19Z" fill="white"/>
<path d="M17 19H16V19.5H17V19Z" fill="black"/>
<path d="M19 19H17V19.5H19V19Z" fill="white"/>
<path d="M20 19H19V19.5H20V19Z" fill="black"/>
<path d="M21 19H20V19.5H21V19Z" fill="white"/>
<path d="M22 19H21V19.5H22V19Z" fill="black"/>
<path d="M15 19.5H14V20H15V19.5Z" fill="black"/>
<path d="M16 19.5H15V20H16V19.5Z" fill="white"/>
<path d="M17 19.5H16V20H17V19.5Z" fill="black"/>
<path d="M19 19.5H17V20H19V19.5Z" fill="white"/>
<path d="M20 19.5H19V20H20V19.5Z" fill="black"/>
<path d="M21 19.5H20V20H21V19.5Z" fill="white"/>
<path d="M22 19.5H21V20H22V19.5Z" fill="black"/>
<path d="M1 20H0V20.5H1V20Z" fill="black"/>
<path d="M3 20H2V20.5H3V20Z" fill="black"/>
<path d="M17 20H14V20.5H17V20Z" fill="black"/>
<path d="M19 20H17V20.5H19V20Z" fill="white"/>
<path d="M22 20H19V20.5H22V20Z" fill="black"/>
<path d="M34 20H33V20.5H34V20Z" fill="black"/>
<path d="M36 20H35V20.5H36V20Z" fill="black"/>
<path d="M1 20.5H0V21H1V20.5Z" fill="black"/>
<path d="M3 20.5H2V21H3V20.5Z" fill="black"/>
<path d="M17 20.5H14V21H17V20.5Z" fill="black"/>
<path d="M19 20.5H17V21H19V20.5Z" fill="white"/>
<path d="M22 20.5H19V21H22V20.5Z" fill="black"/>
<path d="M34 20.5H33V21H34V20.5Z" fill="black"/>
<path d="M36 20.5H35V21H36V20.5Z" fill="black"/>
<path d="M2 21H1V21.5H2V21Z" fill="black"/>
<path d="M15 21H14V21.5H15V21Z" fill="black"/>
<path d="M21 21H15V21.5H21V21Z" fill="white"/>
<path d="M22 21H21V21.5H22V21Z" fill="black"/>
<path d="M35 21H34V21.5H35V21Z" fill="black"/>
<path d="M2 21.5H1V22H2V21.5Z" fill="black"/>
<path d="M15 21.5H14V22H15V21.5Z" fill="black"/>
<path d="M21 21.5H15V22H21V21.5Z" fill="white"/>
<path d="M22 21.5H21V22H22V21.5Z" fill="black"/>
<path d="M35 21.5H34V22H35V21.5Z" fill="black"/>
<path d="M1 22H0V22.5H1V22Z" fill="black"/>
<path d="M3 22H2V22.5H3V22Z" fill="black"/>
<path d="M15 22H14V22.5H15V22Z" fill="black"/>
<path d="M21 22H15V22.5H21V22Z" fill="white"/>
<path d="M22 22H21V22.5H22V22Z" fill="black"/>
<path d="M34 22H33V22.5H34V22Z" fill="black"/>
<path d="M36 22H35V22.5H36V22Z" fill="black"/>
<path d="M1 22.5H0V23H1V22.5Z" fill="black"/>
<path d="M3 22.5H2V23H3V22.5Z" fill="black"/>
<path d="M15 22.5H14V23H15V22.5Z" fill="black"/>
<path d="M21 22.5H15V23H21V22.5Z" fill="white"/>
<path d="M22 22.5H21V23H22V22.5Z" fill="black"/>
<path d="M34 22.5H33V23H34V22.5Z" fill="black"/>
<path d="M36 22.5H35V23H36V22.5Z" fill="black"/>
<path d="M15 23H14V23.5H15V23Z" fill="black"/>
<path d="M16 23H15V23.5H16V23Z" fill="white"/>
<path d="M20 23H16V23.5H20V23Z" fill="black"/>
<path d="M21 23H20V23.5H21V23Z" fill="white"/>
<path d="M22 23H21V23.5H22V23Z" fill="black"/>
<path d="M15 23.5H14V24H15V23.5Z" fill="black"/>
<path d="M16 23.5H15V24H16V23.5Z" fill="white"/>
<path d="M20 23.5H16V24H20V23.5Z" fill="black"/>
<path d="M21 23.5H20V24H21V23.5Z" fill="white"/>
<path d="M22 23.5H21V24H22V23.5Z" fill="black"/>
<path d="M15 24H14V24.5H15V24Z" fill="black"/>
<path d="M16 24H15V24.5H16V24Z" fill="white"/>
<path d="M17 24H16V24.5H17V24Z" fill="black"/>
<path d="M20 24H19V24.5H20V24Z" fill="black"/>
<path d="M21 24H20V24.5H21V24Z" fill="white"/>
<path d="M22 24H21V24.5H22V24Z" fill="black"/>
<path d="M15 24.5H14V25H15V24.5Z" fill="black"/>
<path d="M16 24.5H15V25H16V24.5Z" fill="white"/>
<path d="M17 24.5H16V25H17V24.5Z" fill="black"/>
<path d="M20 24.5H19V25H20V24.5Z" fill="black"/>
<path d="M21 24.5H20V25H21V24.5Z" fill="white"/>
<path d="M22 24.5H21V25H22V24.5Z" fill="black"/>
<path d="M15 25H14V25.5H15V25Z" fill="black"/>
<path d="M16 25H15V25.5H16V25Z" fill="white"/>
<path d="M17 25H16V25.5H17V25Z" fill="black"/>
<path d="M20 25H19V25.5H20V25Z" fill="black"/>
<path d="M21 25H20V25.5H21V25Z" fill="white"/>
<path d="M22 25H21V25.5H22V25Z" fill="black"/>
<path d="M15 25.5H14V26H15V25.5Z" fill="black"/>
<path d="M16 25.5H15V26H16V25.5Z" fill="white"/>
<path d="M17 25.5H16V26H17V25.5Z" fill="black"/>
<path d="M20 25.5H19V26H20V25.5Z" fill="black"/>
<path d="M21 25.5H20V26H21V25.5Z" fill="white"/>
<path d="M22 25.5H21V26H22V25.5Z" fill="black"/>
<path d="M15 26H14V26.5H15V26Z" fill="black"/>
<path d="M16 26H15V26.5H16V26Z" fill="white"/>
<path d="M17 26H16V26.5H17V26Z" fill="black"/>
<path d="M20 26H19V26.5H20V26Z" fill="black"/>
<path d="M21 26H20V26.5H21V26Z" fill="white"/>
<path d="M22 26H21V26.5H22V26Z" fill="black"/>
<path d="M15 26.5H14V27H15V26.5Z" fill="black"/>
<path d="M16 26.5H15V27H16V26.5Z" fill="white"/>
<path d="M17 26.5H16V27H17V26.5Z" fill="black"/>
<path d="M20 26.5H19V27H20V26.5Z" fill="black"/>
<path d="M21 26.5H20V27H21V26.5Z" fill="white"/>
<path d="M22 26.5H21V27H22V26.5Z" fill="black"/>
<path d="M16 27H15V27.5H16V27Z" fill="black"/>
<path d="M21 27H20V27.5H21V27Z" fill="black"/>
<path d="M16 27.5H15V28H16V27.5Z" fill="black"/>
<path d="M21 27.5H20V28H21V27.5Z" fill="black"/>
</g>
<defs>
<clipPath id="clip0_428_584">
<rect width="36" height="28" fill="white"/>
</clipPath>
</defs>
</svg>
