<svg width="72" height="56" viewBox="0 0 72 56" fill="none" xmlns="http://www.w3.org/2000/svg" image-rendering="crisp-edges">
<path d="M30 14H28V16H30V14Z" fill="black"/>
<path d="M32 14H30V16H32V14Z" fill="black"/>
<path d="M42 14H40V16H42V14Z" fill="black"/>
<path d="M44 14H42V16H44V14Z" fill="black"/>
<path d="M30 16H28V18H30V16Z" fill="black"/>
<path d="M32 16H30V18H32V16Z" fill="white"/>
<path d="M34 16H32V18H34V16Z" fill="black"/>
<path d="M40 16H38V18H40V16Z" fill="black"/>
<path d="M42 16H40V18H42V16Z" fill="white"/>
<path d="M44 16H42V18H44V16Z" fill="black"/>
<path d="M30 18H28V20H30V18Z" fill="black"/>
<path d="M32 18H30V20H32V18Z" fill="white"/>
<path d="M34 18H32V20H34V18Z" fill="white"/>
<path d="M36 18H34V20H36V18Z" fill="black"/>
<path d="M12 10H10V12H12V10Z" fill="black"/>
<path d="M10 8H8V10H10V8Z" fill="black"/>
<path d="M14 8H12V10H14V8Z" fill="black"/>
<path d="M14 12H12V14H14V12Z" fill="black"/>
<path d="M10 12H8V14H10V12Z" fill="black"/>
<path d="M12 26H10V28H12V26Z" fill="black"/>
<path d="M10 24H8V26H10V24Z" fill="black"/>
<path d="M14 24H12V26H14V24Z" fill="black"/>
<path d="M14 28H12V30H14V28Z" fill="black"/>
<path d="M10 28H8V30H10V28Z" fill="black"/>
<path d="M62 10H60V12H62V10Z" fill="black"/>
<path d="M60 8H58V10H60V8Z" fill="black"/>
<path d="M64 8H62V10H64V8Z" fill="black"/>
<path d="M64 12H62V14H64V12Z" fill="black"/>
<path d="M60 12H58V14H60V12Z" fill="black"/>
<path d="M70 18H68V20H70V18Z" fill="black"/>
<path d="M68 16H66V18H68V16Z" fill="black"/>
<path d="M72 16H70V18H72V16Z" fill="black"/>
<path d="M72 20H70V22H72V20Z" fill="black"/>
<path d="M68 20H66V22H68V20Z" fill="black"/>
<path d="M4 18H2V20H4V18Z" fill="black"/>
<path d="M2 16H0V18H2V16Z" fill="black"/>
<path d="M6 16H4V18H6V16Z" fill="black"/>
<path d="M6 20H4V22H6V20Z" fill="black"/>
<path d="M2 20H0V22H2V20Z" fill="black"/>
<path d="M62 26H60V28H62V26Z" fill="black"/>
<path d="M60 24H58V26H60V24Z" fill="black"/>
<path d="M64 24H62V26H64V24Z" fill="black"/>
<path d="M64 28H62V30H64V28Z" fill="black"/>
<path d="M60 28H58V30H60V28Z" fill="black"/>
<path d="M70 34H68V36H70V34Z" fill="black"/>
<path d="M68 32H66V34H68V32Z" fill="black"/>
<path d="M72 32H70V34H72V32Z" fill="black"/>
<path d="M72 36H70V38H72V36Z" fill="black"/>
<path d="M68 36H66V38H68V36Z" fill="black"/>
<path d="M4 34H2V36H4V34Z" fill="black"/>
<path d="M2 32H0V34H2V32Z" fill="black"/>
<path d="M6 32H4V34H6V32Z" fill="black"/>
<path d="M6 36H4V38H6V36Z" fill="black"/>
<path d="M2 36H0V38H2V36Z" fill="black"/>
<path d="M62 18H60V20H62V18Z" fill="black"/>
<path d="M60 16H58V18H60V16Z" fill="black"/>
<path d="M64 16H62V18H64V16Z" fill="black"/>
<path d="M64 20H62V22H64V20Z" fill="black"/>
<path d="M60 20H58V22H60V20Z" fill="black"/>
<path d="M70 26H68V28H70V26Z" fill="black"/>
<path d="M68 24H66V26H68V24Z" fill="black"/>
<path d="M72 24H70V26H72V24Z" fill="black"/>
<path d="M72 28H70V30H72V28Z" fill="black"/>
<path d="M68 28H66V30H68V28Z" fill="black"/>
<path d="M4 26H2V28H4V26Z" fill="black"/>
<path d="M2 24H0V26H2V24Z" fill="black"/>
<path d="M6 24H4V26H6V24Z" fill="black"/>
<path d="M6 28H4V30H6V28Z" fill="black"/>
<path d="M2 28H0V30H2V28Z" fill="black"/>
<path d="M62 34H60V36H62V34Z" fill="black"/>
<path d="M60 32H58V34H60V32Z" fill="black"/>
<path d="M64 32H62V34H64V32Z" fill="black"/>
<path d="M64 36H62V38H64V36Z" fill="black"/>
<path d="M60 36H58V38H60V36Z" fill="black"/>
<path d="M70 42H68V44H70V42Z" fill="black"/>
<path d="M68 40H66V42H68V40Z" fill="black"/>
<path d="M72 40H70V42H72V40Z" fill="black"/>
<path d="M72 44H70V46H72V44Z" fill="black"/>
<path d="M68 44H66V46H68V44Z" fill="black"/>
<path d="M4 42H2V44H4V42Z" fill="black"/>
<path d="M2 40H0V42H2V40Z" fill="black"/>
<path d="M6 40H4V42H6V40Z" fill="black"/>
<path d="M6 44H4V46H6V44Z" fill="black"/>
<path d="M2 44H0V46H2V44Z" fill="black"/>
<path d="M12 18H10V20H12V18Z" fill="black"/>
<path d="M10 16H8V18H10V16Z" fill="black"/>
<path d="M14 16H12V18H14V16Z" fill="black"/>
<path d="M14 20H12V22H14V20Z" fill="black"/>
<path d="M10 20H8V22H10V20Z" fill="black"/>
<path d="M12 34H10V36H12V34Z" fill="black"/>
<path d="M10 32H8V34H10V32Z" fill="black"/>
<path d="M14 32H12V34H14V32Z" fill="black"/>
<path d="M14 36H12V38H14V36Z" fill="black"/>
<path d="M10 36H8V38H10V36Z" fill="black"/>
<path d="M38 18H36V20H38V18Z" fill="black"/>
<path d="M40 18H38V20H40V18Z" fill="white"/>
<path d="M42 18H40V20H42V18Z" fill="white"/>
<path d="M44 18H42V20H44V18Z" fill="black"/>
<path d="M28 20H26V22H28V20Z" fill="black"/>
<path d="M30 20H28V22H30V20Z" fill="white"/>
<path d="M32 20H30V22H32V20Z" fill="white"/>
<path d="M34 20H32V22H34V20Z" fill="white"/>
<path d="M36 20H34V22H36V20Z" fill="white"/>
<path d="M38 20H36V22H38V20Z" fill="white"/>
<path d="M40 20H38V22H40V20Z" fill="white"/>
<path d="M42 20H40V22H42V20Z" fill="white"/>
<path d="M44 20H42V22H44V20Z" fill="white"/>
<path d="M46 20H44V22H46V20Z" fill="black"/>
<path d="M24 22H22V24H24V22Z" fill="black"/>
<path d="M28 22H26V24H28V22Z" fill="black"/>
<path d="M30 22H28V24H30V22Z" fill="white"/>
<path d="M32 22H30V24H32V22Z" fill="white"/>
<path d="M36 22H34V24H36V22Z" fill="white"/>
<path d="M34 22H32V24H34V22Z" fill="white"/>
<path d="M38 22H36V24H38V22Z" fill="white"/>
<path d="M40 22H38V24H40V22Z" fill="white"/>
<path d="M42 22H40V24H42V22Z" fill="white"/>
<path d="M44 22H42V24H44V22Z" fill="white"/>
<path d="M46 22H44V24H46V22Z" fill="black"/>
<path d="M50 22H48V24H50V22Z" fill="black"/>
<path d="M26 24H24V26H26V24Z" fill="black"/>
<path d="M28 24H26V26H28V24Z" fill="black"/>
<path d="M30 24H28V26H30V24Z" fill="white"/>
<path d="M32 24H30V26H32V24Z" fill="white"/>
<path d="M34 24H32V26H34V24Z" fill="white"/>
<path d="M36 24H34V26H36V24Z" fill="white"/>
<path d="M38 24H36V26H38V24Z" fill="white"/>
<path d="M40 24H38V26H40V24Z" fill="white"/>
<path d="M42 24H40V26H42V24Z" fill="white"/>
<path d="M44 24H42V26H44V24Z" fill="white"/>
<path d="M46 24H44V26H46V24Z" fill="black"/>
<path d="M48 24H46V26H48V24Z" fill="black"/>
<path d="M24 26H22V28H24V26Z" fill="black"/>
<path d="M28 26H26V28H28V26Z" fill="black"/>
<path d="M30 26H28V28H30V26Z" fill="white"/>
<path d="M32 26H30V28H32V26Z" fill="white"/>
<path d="M34 26H32V28H34V26Z" fill="white"/>
<path d="M36 26H34V28H36V26Z" fill="white"/>
<path d="M38 26H36V28H38V26Z" fill="white"/>
<path d="M40 26H38V28H40V26Z" fill="white"/>
<path d="M42 26H40V28H42V26Z" fill="white"/>
<path d="M44 26H42V28H44V26Z" fill="white"/>
<path d="M46 26H44V28H46V26Z" fill="black"/>
<path d="M50 26H48V28H50V26Z" fill="black"/>
<path d="M30 28H28V30H30V28Z" fill="black"/>
<path d="M32 28H30V30H32V28Z" fill="white"/>
<path d="M34 28H32V30H34V28Z" fill="white"/>
<path d="M36 28H34V30H36V28Z" fill="white"/>
<path d="M38 28H36V30H38V28Z" fill="white"/>
<path d="M40 28H38V30H40V28Z" fill="white"/>
<path d="M42 28H40V30H42V28Z" fill="white"/>
<path d="M44 28H42V30H44V28Z" fill="black"/>
<path d="M30 30H28V40H30V30Z" fill="black"/>
<path d="M34 34H32V40H34V34Z" fill="black"/>
<path d="M34 46H32V52H34V46Z" fill="black"/>
<path d="M28 40H34V42H28V40Z" fill="black"/>
<path d="M34 46H38V48H34V46Z" fill="black"/>
<path d="M28 52H30V54H28V52Z" fill="black"/>
<path d="M32 52H34V54H32V52Z" fill="black"/>
<path d="M30 54H32V56H30V54Z" fill="black"/>
<path d="M28 42H30V52H28V42Z" fill="black"/>
<path d="M42 42H44V52H42V42Z" fill="black"/>
<path d="M38 40H44V42H38V40Z" fill="black"/>
<path d="M38 52H40V54H38V52Z" fill="black"/>
<path d="M42 52H44V54H42V52Z" fill="black"/>
<path d="M40 54H42V56H40V54Z" fill="black"/>
<path d="M40 34H38V40H40V34Z" fill="black"/>
<path d="M40 46H38V52H40V46Z" fill="black"/>
<path d="M32 30H30V32H32V30Z" fill="white"/>
<path d="M32 32H30V34H32V32Z" fill="white"/>
<path d="M34 32H32V34H34V32Z" fill="white"/>
<path d="M36 32H34V34H36V32Z" fill="white"/>
<path d="M36 34H34V36H36V34Z" fill="white"/>
<path d="M36 36H34V38H36V36Z" fill="white"/>
<path d="M36 38H34V40H36V38Z" fill="white"/>
<path d="M36 40H34V42H36V40Z" fill="white"/>
<path d="M36 42H34V44H36V42Z" fill="white"/>
<path d="M36 44H34V46H36V44Z" fill="white"/>
<path d="M40 44H38V46H40V44Z" fill="white"/>
<path d="M40 42H38V44H40V42Z" fill="white"/>
<path d="M32 42H30V44H32V42Z" fill="white"/>
<path d="M32 44H30V46H32V44Z" fill="white"/>
<path d="M32 46H30V48H32V46Z" fill="white"/>
<path d="M32 48H30V50H32V48Z" fill="white"/>
<path d="M32 50H30V52H32V50Z" fill="white"/>
<path d="M32 52H30V54H32V52Z" fill="white"/>
<path d="M38 32H36V34H38V32Z" fill="white"/>
<path d="M38 34H36V36H38V34Z" fill="white"/>
<path d="M38 36H36V38H38V36Z" fill="white"/>
<path d="M38 38H36V40H38V38Z" fill="white"/>
<path d="M38 40H36V42H38V40Z" fill="white"/>
<path d="M38 42H36V44H38V42Z" fill="white"/>
<path d="M38 44H36V46H38V44Z" fill="white"/>
<path d="M42 44H40V46H42V44Z" fill="white"/>
<path d="M42 46H40V48H42V46Z" fill="white"/>
<path d="M42 48H40V50H42V48Z" fill="white"/>
<path d="M42 50H40V52H42V50Z" fill="white"/>
<path d="M42 52H40V54H42V52Z" fill="white"/>
<path d="M42 42H40V44H42V42Z" fill="white"/>
<path d="M34 42H32V44H34V42Z" fill="white"/>
<path d="M34 44H32V46H34V44Z" fill="white"/>
<path d="M40 32H38V34H40V32Z" fill="white"/>
<path d="M42 32H40V34H42V32Z" fill="white"/>
<path d="M42 34H40V36H42V34Z" fill="white"/>
<path d="M42 36H40V38H42V36Z" fill="white"/>
<path d="M42 38H40V40H42V38Z" fill="white"/>
<path d="M32 34H30V36H32V34Z" fill="white"/>
<path d="M32 36H30V38H32V36Z" fill="white"/>
<path d="M32 38H30V40H32V38Z" fill="white"/>
<path d="M34 30H32V32H34V30Z" fill="white"/>
<path d="M36 30H34V32H36V30Z" fill="white"/>
<path d="M38 30H36V32H38V30Z" fill="white"/>
<path d="M40 30H38V32H40V30Z" fill="white"/>
<path d="M42 30H40V32H42V30Z" fill="white"/>
<path d="M44 30H42V32H44V30Z" fill="white"/>
<path d="M44 30H42V40H44V30Z" fill="black"/>
<path d="M34 24H32V26H34V24Z" fill="black"/>
<path d="M32 24H30V26H32V24Z" fill="black"/>
<path d="M40 24H38V26H40V24Z" fill="black"/>
<path d="M42 24H40V26H42V24Z" fill="black"/>
<rect x="26" y="8" width="20" height="2" fill="black"/>
<rect x="46" y="6" width="2" height="2" fill="black"/>
<rect x="46" y="2" width="2" height="2" fill="black"/>
<rect x="48" y="4" width="2" height="2" fill="black"/>
<rect x="24" y="6" width="2" height="2" fill="black"/>
<rect x="22" y="4" width="2" height="2" fill="black"/>
<rect x="24" y="2" width="2" height="2" fill="black"/>
<rect x="26" width="20" height="2" fill="black"/>
</svg>
