<svg width="16" height="16" viewBox="0 0 16 16" fill="none" xmlns="http://www.w3.org/2000/svg">
<rect width="1" height="1" transform="matrix(-1 0 0 1 11 7)" fill="black"/>
<rect width="1" height="1" transform="matrix(-1 0 0 1 11 8)" fill="black"/>
<rect width="1" height="1" transform="matrix(-1 0 0 1 10 6)" fill="black"/>
<rect width="1" height="1" transform="matrix(-1 0 0 1 10 9)" fill="black"/>
<rect width="1" height="1" transform="matrix(-1 0 0 1 9 5)" fill="black"/>
<rect width="1" height="1" transform="matrix(-1 0 0 1 9 10)" fill="black"/>
<rect width="1" height="1" transform="matrix(-1 0 0 1 8 4)" fill="black"/>
<rect width="1" height="1" transform="matrix(-1 0 0 1 8 11)" fill="black"/>
<rect width="1" height="1" transform="matrix(-1 0 0 1 7 3)" fill="black"/>
<rect width="1" height="1" transform="matrix(-1 0 0 1 6 2)" fill="black"/>
<rect width="1" height="1" transform="matrix(-1 0 0 1 7 12)" fill="black"/>
<rect width="1" height="1" transform="matrix(-1 0 0 1 6 13)" fill="black"/>
</svg>