<svg width="19" height="15" viewBox="0 0 19 15" fill="none" xmlns="http://www.w3.org/2000/svg" shape-rendering="crispEdges">
<g clip-path="url(#clip0_8_1562)">
<path d="M4 0H3V1H4V0Z" fill="black"/>
<path d="M5 0H4V1H5V0Z" fill="black"/>
<path d="M10 0H9V1H10V0Z" fill="black"/>
<path d="M11 0H10V1H11V0Z" fill="black"/>
<path d="M4 1H3V2H4V1Z" fill="black"/>
<path d="M5 1H4V2H5V1Z" fill="white"/>
<path d="M6 1H5V2H6V1Z" fill="black"/>
<path d="M9 1H8V2H9V1Z" fill="black"/>
<path d="M10 1H9V2H10V1Z" fill="white"/>
<path d="M11 1H10V2H11V1Z" fill="black"/>
<path d="M18 1H17V2H18V1Z" fill="black"/>
<path d="M4 2.00003H3V3.00003H4V2.00003Z" fill="black"/>
<path d="M5 2.00003H4V3.00003H5V2.00003Z" fill="white"/>
<path d="M6 2.00003H5V3.00003H6V2.00003Z" fill="white"/>
<path d="M7 2.00003H6V3.00003H7V2.00003Z" fill="black"/>
<path d="M8 2.00003H7V3.00003H8V2.00003Z" fill="black"/>
<path d="M9 2.00003H8V3.00003H9V2.00003Z" fill="white"/>
<path d="M10 2.00003H9V3.00003H10V2.00003Z" fill="white"/>
<path d="M11 2.00003H10V3.00003H11V2.00003Z" fill="black"/>
<path d="M17 2.00003H16V3.00003H17V2.00003Z" fill="black"/>
<path d="M18 2.00003H17V3.00003H18V2.00003Z" fill="white"/>
<path d="M19 2.00003H18V3.00003H19V2.00003Z" fill="black"/>
<path d="M3 3.00002H2V4.00002H3V3.00002Z" fill="black"/>
<path d="M4 3.00002H3V4.00002H4V3.00002Z" fill="white"/>
<path d="M5 3.00002H4V4.00002H5V3.00002Z" fill="white"/>
<path d="M6 3.00002H5V4.00002H6V3.00002Z" fill="white"/>
<path d="M7 3.00002H6V4.00002H7V3.00002Z" fill="white"/>
<path d="M8 3.00002H7V4.00002H8V3.00002Z" fill="white"/>
<path d="M9 3.00002H8V4.00002H9V3.00002Z" fill="white"/>
<path d="M10 3.00002H9V4.00002H10V3.00002Z" fill="white"/>
<path d="M11 3.00002H10V4.00002H11V3.00002Z" fill="white"/>
<path d="M12 3.00002H11V4.00002H12V3.00002Z" fill="black"/>
<path d="M17 3.00002H16V4.00002H17V3.00002Z" fill="black"/>
<path d="M18 3.00002H17V4.00002H18V3.00002Z" fill="white"/>
<path d="M19 3.00002H18V4.00002H19V3.00002Z" fill="black"/>
<path d="M1 4H0V5H1V4Z" fill="black"/>
<path d="M3 4H2V5H3V4Z" fill="black"/>
<path d="M4 4H3V5H4V4Z" fill="white"/>
<path d="M5 4H4V5H5V4Z" fill="white"/>
<path d="M6 4H5V5H6V4Z" fill="black"/>
<path d="M7 4H6V5H7V4Z" fill="white"/>
<path d="M8 4H7V5H8V4Z" fill="white"/>
<path d="M9 4H8V5H9V4Z" fill="black"/>
<path d="M10 4H9V5H10V4Z" fill="white"/>
<path d="M11 4H10V5H11V4Z" fill="white"/>
<path d="M12 4H11V5H12V4Z" fill="black"/>
<path d="M14 4H13V5H14V4Z" fill="black"/>
<path d="M17 4H16V5H17V4Z" fill="black"/>
<path d="M18 4H17V5H18V4Z" fill="white"/>
<path d="M19 4H18V5H19V4Z" fill="black"/>
<path d="M2 5H1V6H2V5Z" fill="black"/>
<path d="M3 5H2V6H3V5Z" fill="black"/>
<path d="M4 5H3V6H4V5Z" fill="white"/>
<path d="M5 5H4V6H5V5Z" fill="white"/>
<path d="M6 5H5V6H6V5Z" fill="white"/>
<path d="M7 5H6V6H7V5Z" fill="white"/>
<path d="M8 5H7V6H8V5Z" fill="white"/>
<path d="M9 5H8V6H9V5Z" fill="white"/>
<path d="M10 5H9V6H10V5Z" fill="white"/>
<path d="M11 5H10V6H11V5Z" fill="white"/>
<path d="M12 5H11V6H12V5Z" fill="black"/>
<path d="M13 5H12V6H13V5Z" fill="black"/>
<path d="M17 5H16V6H17V5Z" fill="black"/>
<path d="M18 5H17V6H18V5Z" fill="white"/>
<path d="M19 5H18V6H19V5Z" fill="black"/>
<path d="M1 6.00003H0V7.00003H1V6.00003Z" fill="black"/>
<path d="M3 6.00003H2V7.00003H3V6.00003Z" fill="black"/>
<path d="M4 6.00003H3V7.00003H4V6.00003Z" fill="white"/>
<path d="M5 6.00003H4V7.00003H5V6.00003Z" fill="white"/>
<path d="M6 6.00003H5V7.00003H6V6.00003Z" fill="white"/>
<path d="M7 6.00003H6V7.00003H7V6.00003Z" fill="white"/>
<path d="M8 6.00003H7V7.00003H8V6.00003Z" fill="white"/>
<path d="M9 6.00003H8V7.00003H9V6.00003Z" fill="white"/>
<path d="M10 6.00003H9V7.00003H10V6.00003Z" fill="white"/>
<path d="M11 6.00003H10V7.00003H11V6.00003Z" fill="white"/>
<path d="M12 6.00003H11V7.00003H12V6.00003Z" fill="black"/>
<path d="M14 6.00003H13V7.00003H14V6.00003Z" fill="black"/>
<path d="M17 6.00003H16V7.00003H17V6.00003Z" fill="black"/>
<path d="M18 6.00003H17V7.00003H18V6.00003Z" fill="white"/>
<path d="M19 6.00003H18V7.00003H19V6.00003Z" fill="black"/>
<path d="M4 7.00003H3V8.00003H4V7.00003Z" fill="black"/>
<path d="M5 7.00003H4V8.00003H5V7.00003Z" fill="white"/>
<path d="M6 7.00003H5V8.00003H6V7.00003Z" fill="white"/>
<path d="M7 7.00003H6V8.00003H7V7.00003Z" fill="white"/>
<path d="M8 7.00003H7V8.00003H8V7.00003Z" fill="white"/>
<path d="M9 7.00003H8V8.00003H9V7.00003Z" fill="white"/>
<path d="M10 7.00003H9V8.00003H10V7.00003Z" fill="white"/>
<path d="M11 7.00003H10V8.00003H11V7.00003Z" fill="black"/>
<path d="M17 7.00003H16V8.00003H17V7.00003Z" fill="black"/>
<path d="M18 7.00003H17V8.00003H18V7.00003Z" fill="white"/>
<path d="M19 7.00003H18V8.00003H19V7.00003Z" fill="black"/>
<path d="M4 8H3V9H4V8Z" fill="black"/>
<path d="M5 8H4V9H5V8Z" fill="white"/>
<path d="M6 8H5V9H6V8Z" fill="white"/>
<path d="M7 8H6V9H7V8Z" fill="white"/>
<path d="M8 8H7V9H8V8Z" fill="white"/>
<path d="M9 8H8V9H9V8Z" fill="white"/>
<path d="M10 8H9V9H10V8Z" fill="white"/>
<path d="M11 8H10V9H11V8Z" fill="white"/>
<path d="M12 8H11V9H12V8Z" fill="black"/>
<path d="M13 8H12V9H13V8Z" fill="black"/>
<path d="M14 8H13V9H14V8Z" fill="black"/>
<path d="M15 8H14V9H15V8Z" fill="black"/>
<path d="M16 8H15V9H16V8Z" fill="black"/>
<path d="M17 8H16V9H17V8Z" fill="black"/>
<path d="M18 8H17V9H18V8Z" fill="white"/>
<path d="M19 8H18V9H19V8Z" fill="black"/>
<path d="M4 9H3V10H4V9Z" fill="black"/>
<path d="M5 9H4V10H5V9Z" fill="white"/>
<path d="M6 9H5V10H6V9Z" fill="white"/>
<path d="M7 9H6V10H7V9Z" fill="white"/>
<path d="M8 9H7V10H8V9Z" fill="white"/>
<path d="M9 9H8V10H9V9Z" fill="white"/>
<path d="M10 9H9V10H10V9Z" fill="white"/>
<path d="M11 9H10V10H11V9Z" fill="white"/>
<path d="M12 9H11V10H12V9Z" fill="white"/>
<path d="M13 9H12V10H13V9Z" fill="white"/>
<path d="M14 9H13V10H14V9Z" fill="white"/>
<path d="M15 9H14V10H15V9Z" fill="white"/>
<path d="M16 9H15V10H16V9Z" fill="white"/>
<path d="M17 9H16V10H17V9Z" fill="white"/>
<path d="M18 9H17V10H18V9Z" fill="white"/>
<path d="M19 9H18V10H19V9Z" fill="black"/>
<path d="M4 10H3V11H4V10Z" fill="black"/>
<path d="M5 10H4V11H5V10Z" fill="white"/>
<path d="M6 10H5V11H6V10Z" fill="white"/>
<path d="M7 10H6V11H7V10Z" fill="white"/>
<path d="M8 10H7V11H8V10Z" fill="white"/>
<path d="M9 10H8V11H9V10Z" fill="white"/>
<path d="M10 10H9V11H10V10Z" fill="black"/>
<path d="M11 10H10V11H11V10Z" fill="white"/>
<path d="M12 10H11V11H12V10Z" fill="white"/>
<path d="M13 10H12V11H13V10Z" fill="white"/>
<path d="M14 10H13V11H14V10Z" fill="white"/>
<path d="M15 10H14V11H15V10Z" fill="white"/>
<path d="M16 10H15V11H16V10Z" fill="white"/>
<path d="M17 10H16V11H17V10Z" fill="white"/>
<path d="M18 10H17V11H18V10Z" fill="white"/>
<path d="M19 10H18V11H19V10Z" fill="black"/>
<path d="M4 11H3V12H4V11Z" fill="black"/>
<path d="M5 11H4V12H5V11Z" fill="white"/>
<path d="M6 11H5V12H6V11Z" fill="white"/>
<path d="M7 11H6V12H7V11Z" fill="black"/>
<path d="M8 11H7V12H8V11Z" fill="white"/>
<path d="M9 11H8V12H9V11Z" fill="white"/>
<path d="M10 11H9V12H10V11Z" fill="black"/>
<path d="M11 11H10V12H11V11Z" fill="white"/>
<path d="M12 11H11V12H12V11Z" fill="white"/>
<path d="M13 11H12V12H13V11Z" fill="white"/>
<path d="M14 11H13V12H14V11Z" fill="white"/>
<path d="M15 11H14V12H15V11Z" fill="white"/>
<path d="M16 11H15V12H16V11Z" fill="white"/>
<path d="M17 11H16V12H17V11Z" fill="white"/>
<path d="M18 11H17V12H18V11Z" fill="white"/>
<path d="M19 11H18V12H19V11Z" fill="black"/>
<path d="M4 12H3V13H4V12Z" fill="black"/>
<path d="M5 12H4V13H5V12Z" fill="white"/>
<path d="M6 12H5V13H6V12Z" fill="white"/>
<path d="M7 12H6V13H7V12Z" fill="black"/>
<path d="M8 12H7V13H8V12Z" fill="white"/>
<path d="M9 12H8V13H9V12Z" fill="white"/>
<path d="M10 12H9V13H10V12Z" fill="black"/>
<path d="M11 12H10V13H11V12Z" fill="white"/>
<path d="M12 12H11V13H12V12Z" fill="white"/>
<path d="M13 12H12V13H13V12Z" fill="white"/>
<path d="M14 12H13V13H14V12Z" fill="black"/>
<path d="M15 12H14V13H15V12Z" fill="black"/>
<path d="M16 12H15V13H16V12Z" fill="black"/>
<path d="M17 12H16V13H17V12Z" fill="white"/>
<path d="M18 12H17V13H18V12Z" fill="white"/>
<path d="M19 12H18V13H19V12Z" fill="black"/>
<path d="M4 13H3V14H4V13Z" fill="black"/>
<path d="M5 13H4V14H5V13Z" fill="white"/>
<path d="M6 13H5V14H6V13Z" fill="white"/>
<path d="M7 13H6V14H7V13Z" fill="black"/>
<path d="M8 13H7V14H8V13Z" fill="white"/>
<path d="M9 13H8V14H9V13Z" fill="white"/>
<path d="M10 13H9V14H10V13Z" fill="black"/>
<path d="M11 13H10V14H11V13Z" fill="white"/>
<path d="M12 13H11V14H12V13Z" fill="white"/>
<path d="M13 13H12V14H13V13Z" fill="black"/>
<path d="M14 13H13V14H14V13Z" fill="white"/>
<path d="M15 13H14V14H15V13Z" fill="white"/>
<path d="M16 13H15V14H16V13Z" fill="white"/>
<path d="M17 13H16V14H17V13Z" fill="white"/>
<path d="M18 13H17V14H18V13Z" fill="black"/>
<path d="M5 14H4V15H5V14Z" fill="black"/>
<path d="M6 14H5V15H6V14Z" fill="black"/>
<path d="M7 14H6V15H7V14Z" fill="black"/>
<path d="M8 14H7V15H8V14Z" fill="black"/>
<path d="M9 14H8V15H9V14Z" fill="black"/>
<path d="M10 14H9V15H10V14Z" fill="black"/>
<path d="M11 14H10V15H11V14Z" fill="black"/>
<path d="M12 14H11V15H12V14Z" fill="black"/>
<path d="M13 14H12V15H13V14Z" fill="black"/>
<path d="M14 14H13V15H14V14Z" fill="black"/>
<path d="M15 14H14V15H15V14Z" fill="black"/>
<path d="M16 14H15V15H16V14Z" fill="black"/>
<path d="M17 14H16V15H17V14Z" fill="black"/>
</g>
<defs>
<clipPath id="clip0_8_1562">
<rect width="19" height="15" fill="white"/>
</clipPath>
</defs>
</svg>
