<svg width="144" height="24" viewBox="0 0 144 24" fill="none" xmlns="http://www.w3.org/2000/svg">
<path d="M12 0H2V6H12V0Z" fill="currentColor"/>
<path d="M28 0H22V6H28V0Z" fill="currentColor"/>
<path d="M52 0H36V6H52V0Z" fill="currentColor"/>
<path d="M66 0H60V6H66V0Z" fill="currentColor"/>
<path d="M86 0H74V6H86V0Z" fill="currentColor"/>
<path d="M104 0H94V6H104V0Z" fill="currentColor"/>
<path d="M114 0H110V24H114V0Z" fill="currentColor"/>
<path d="M124 0H120V24H124V0Z" fill="currentColor"/>
<path d="M132 0H128V8H132V0Z" fill="currentColor"/>
<path d="M144 0H140V8H144V0Z" fill="currentColor"/>
<path d="M2 2H0V22H2V2Z" fill="currentColor"/>
<path d="M14 2H12V10H14V2Z" fill="currentColor"/>
<path d="M22 2H20V24H22V2Z" fill="currentColor"/>
<path d="M30 2H28V24H30V2Z" fill="currentColor"/>
<path d="M60 2H58V24H60V2Z" fill="currentColor"/>
<path d="M68 2H66V24H68V2Z" fill="currentColor"/>
<path d="M88 2H86V12H88V2Z" fill="currentColor"/>
<path d="M94 2H92V22H94V2Z" fill="currentColor"/>
<path d="M106 2H104V10H106V2Z" fill="currentColor"/>
<path d="M134 4H132V14H134V4Z" fill="currentColor"/>
<path d="M140 4H138V14H140V4Z" fill="currentColor"/>
<path d="M4 6H2V24H4V6Z" fill="currentColor"/>
<path d="M12 6H10V10H12V6Z" fill="currentColor"/>
<path d="M20 6H18V24H20V6Z" fill="currentColor"/>
<path d="M24 6H22V16H24V6Z" fill="currentColor"/>
<path d="M28 6H26V16H28V6Z" fill="currentColor"/>
<path d="M32 6H30V24H32V6Z" fill="currentColor"/>
<path d="M46 6H42V24H46V6Z" fill="currentColor"/>
<path d="M58 6H56V24H58V6Z" fill="currentColor"/>
<path d="M62 6H60V16H62V6Z" fill="currentColor"/>
<path d="M66 6H64V16H66V6Z" fill="currentColor"/>
<path d="M70 6H68V24H70V6Z" fill="currentColor"/>
<path d="M78 6H74V24H78V6Z" fill="currentColor"/>
<path d="M86 6H84V24H86V6Z" fill="currentColor"/>
<path d="M96 6H94V24H96V6Z" fill="currentColor"/>
<path d="M104 6H102V10H104V6Z" fill="currentColor"/>
<path d="M84 8H78V14H84V8Z" fill="currentColor"/>
<path d="M120 8H114V14H120V8Z" fill="currentColor"/>
<path d="M132 8H130V12H132V8Z" fill="currentColor"/>
<path d="M138 8H134V24H138V8Z" fill="currentColor"/>
<path d="M142 8H140V12H142V8Z" fill="currentColor"/>
<path d="M26 10H24V16H26V10Z" fill="currentColor"/>
<path d="M64 10H62V16H64V10Z" fill="currentColor"/>
<path d="M14 14H10V22H14V14Z" fill="currentColor"/>
<path d="M84 14H80V16H84V14Z" fill="currentColor"/>
<path d="M106 14H102V22H106V14Z" fill="currentColor"/>
<path d="M84 16H82V20H84V16Z" fill="currentColor"/>
<path d="M10 18H4V24H10V18Z" fill="currentColor"/>
<path d="M88 18H86V24H88V18Z" fill="currentColor"/>
<path d="M102 18H96V24H102V18Z" fill="currentColor"/>
<path d="M12 22H10V24H12V22Z" fill="currentColor"/>
<path d="M104 22H102V24H104V22Z" fill="currentColor"/>
</svg>
