<svg width="72" height="12" viewBox="0 0 72 12" fill="none" xmlns="http://www.w3.org/2000/svg" shape-rendering="crispEdges">
<path d="M6 0H1V3H6V0Z" fill="black"/>
<path d="M14 0H11V3H14V0Z" fill="black"/>
<path d="M26 0H18V3H26V0Z" fill="black"/>
<path d="M33 0H30V3H33V0Z" fill="black"/>
<path d="M43 0H37V3H43V0Z" fill="black"/>
<path d="M52 0H47V3H52V0Z" fill="black"/>
<path d="M57 0H55V12H57V0Z" fill="black"/>
<path d="M62 0H60V12H62V0Z" fill="black"/>
<path d="M66 0H64V4H66V0Z" fill="black"/>
<path d="M72 0H70V4H72V0Z" fill="black"/>
<path d="M1 1H0V11H1V1Z" fill="black"/>
<path d="M7 1H6V5H7V1Z" fill="black"/>
<path d="M11 1H10V12H11V1Z" fill="black"/>
<path d="M15 1H14V12H15V1Z" fill="black"/>
<path d="M30 1H29V12H30V1Z" fill="black"/>
<path d="M34 1H33V12H34V1Z" fill="black"/>
<path d="M44 1H43V6H44V1Z" fill="black"/>
<path d="M47 1H46V11H47V1Z" fill="black"/>
<path d="M53 1H52V5H53V1Z" fill="black"/>
<path d="M67 2H66V7H67V2Z" fill="black"/>
<path d="M70 2H69V7H70V2Z" fill="black"/>
<path d="M2 3H1V12H2V3Z" fill="black"/>
<path d="M6 3H5V5H6V3Z" fill="black"/>
<path d="M10 3H9V12H10V3Z" fill="black"/>
<path d="M12 3H11V8H12V3Z" fill="black"/>
<path d="M14 3H13V8H14V3Z" fill="black"/>
<path d="M16 3H15V12H16V3Z" fill="black"/>
<path d="M23 3H21V12H23V3Z" fill="black"/>
<path d="M29 3H28V12H29V3Z" fill="black"/>
<path d="M31 3H30V8H31V3Z" fill="black"/>
<path d="M33 3H32V8H33V3Z" fill="black"/>
<path d="M35 3H34V12H35V3Z" fill="black"/>
<path d="M39 3H37V12H39V3Z" fill="black"/>
<path d="M43 3H42V12H43V3Z" fill="black"/>
<path d="M48 3H47V12H48V3Z" fill="black"/>
<path d="M52 3H51V5H52V3Z" fill="black"/>
<path d="M42 4H39V7H42V4Z" fill="black"/>
<path d="M60 4H57V7H60V4Z" fill="black"/>
<path d="M66 4H65V6H66V4Z" fill="black"/>
<path d="M69 4H67V12H69V4Z" fill="black"/>
<path d="M71 4H70V6H71V4Z" fill="black"/>
<path d="M13 5H12V8H13V5Z" fill="black"/>
<path d="M32 5H31V8H32V5Z" fill="black"/>
<path d="M7 7H5V11H7V7Z" fill="black"/>
<path d="M42 7H40V8H42V7Z" fill="black"/>
<path d="M53 7H51V11H53V7Z" fill="black"/>
<path d="M42 8H41V10H42V8Z" fill="black"/>
<path d="M5 9H2V12H5V9Z" fill="black"/>
<path d="M44 9H43V12H44V9Z" fill="black"/>
<path d="M51 9H48V12H51V9Z" fill="black"/>
<path d="M6 11H5V12H6V11Z" fill="black"/>
<path d="M52 11H51V12H52V11Z" fill="black"/>
</svg>
