<svg width="16" height="16" viewBox="0 0 16 16" fill="none" xmlns="http://www.w3.org/2000/svg">
<path d="M3 2H2V3H3V2Z" fill="currentColor"/>
<path d="M14 2H13V3H14V2Z" fill="currentColor"/>
<path d="M4 3H3V4H4V3Z" fill="currentColor"/>
<path d="M13 3H12V4H13V3Z" fill="currentColor"/>
<path d="M5 4H4V5H5V4Z" fill="currentColor"/>
<path d="M12 4H11V5H12V4Z" fill="currentColor"/>
<path d="M6 5H5V6H6V5Z" fill="currentColor"/>
<path d="M11 5H10V6H11V5Z" fill="currentColor"/>
<path d="M7 6H6V7H7V6Z" fill="currentColor"/>
<path d="M10 6H9V7H10V6Z" fill="currentColor"/>
<path d="M9 7H7V9H9V7Z" fill="currentColor"/>
<path d="M7 9H6V10H7V9Z" fill="currentColor"/>
<path d="M10 9H9V10H10V9Z" fill="currentColor"/>
<path d="M6 10H5V11H6V10Z" fill="currentColor"/>
<path d="M11 10H10V11H11V10Z" fill="currentColor"/>
<path d="M5 11H4V12H5V11Z" fill="currentColor"/>
<path d="M12 11H11V12H12V11Z" fill="currentColor"/>
<path d="M4 12H3V13H4V12Z" fill="currentColor"/>
<path d="M13 12H12V13H13V12Z" fill="currentColor"/>
<path d="M3 13H2V14H3V13Z" fill="currentColor"/>
<path d="M14 13H13V14H14V13Z" fill="currentColor"/>
</svg>
